<svg xmlns="http://www.w3.org/2000/svg" xml:space="preserve" viewBox="0 0 1536 1024"><path fill="#041226" d="M1537 364v661H1V1h1536v332c-8 2-8 2-7 8-3-2-13-3-15-1l-2 3-1 3q-8 5-14 12l-7 6-7 4-4-5v-2q-8-7-10-18l-5-17c-1-4-9-13-13-14h-1q-7 2-9 9 0 4-4 8-2 4-6 0l-3-5c-4-8-21-11-28-5l-1 2 2 1 9-1-1 8-1 7-3 8-3 8q0 5-5 9l-6-1 1-2 2-5-5 1-5 3h-5c0-5 4-11-2-15l-3-5q0-12-8-12l-2-5 2-6c8 5 14 13 24 11v4q-1 5 3 5l7-2-3-5-2-1q-7-5-1-11l2-4-8-15-9 6-2-5q-5 1-7 1l-11-12c7-3 7-3 9 2l1 4 5 2 1-5-1-3 1-1 4 3c2 2 4 6 7 3h2l4 1 1-7-3-3-15-1c-10 1-12-1-15-10l-7-7q-4-2-7 3-2 5-5 7-4 3-3 7l1 6q-5-6-11-4c1-4 0-9 5-11q5-3 6-8l2-2q5 1 7-5l12-19h2c0 8 7 8 13 10l-3 5 15-6 4-3 10-17 1-2h-1l-2 2h-4q-5-3-9 2t-7-1q-1-5-6-2l-24 10-13-2q-6-1-7 6-2 9-11 12-9 5-13 13-2 5-7 9-16 12-36 11l-6 2-8 15q-4 8-12 14l-14 7q-8 2-13 6-10 7-19 16l-7 6-4 1-3 1-10 8-24 13-14 5-3 2q-7-3-11 2h-3l-23-1h-5c-11-2-21 4-32 2l-5 2-12 3h-9q-18 4-36 4-16 2-31-3h-4l-32 2-1 1c-9 0-17 5-27 6q-24 0-48-2c-14-2-26-7-40-6l-22 2h-16q-13 2-24-5-5-4-11-1h-8l-1 4-10-3q0-8-6-6t-9 6q-2 4-9 4h-15l-1 2 6 7q3 4 4 8v14l-2 4-24 10c-7 4-15 5-21 12q-3 3-7 2l-21-2-8-2q-7-4-13-6-14-4-29-6h-10q-9 2-16-3-11-6-15-16-3-7-13-6c-5 1-3 5-3 9-1 8 2 17-3 26v2l3 3 3-3 1-6q7 3 10 2c2-3 8 0 9-6l6 2 5 5-6 9-2-2q-2-7-9-3c-1 2 2 6-3 7v-1l-10-1h-1l-6 3h-8v-1l-9-1-1-2 6-3q4-10-4-18-4-5-9-3h-5l-9-3-9-3-8-6-6 4q-4 3-3 5 1 9-3 16 8 7 11 19l2 3q7 4 6 12v10q-5-2-8-6-2-3-3-8l-4-6-13 5-2 5q1 6-3 10-6-3-10-4-5 0-9 1l-1-7-2-10q1-4 3-5 4 0 7-4l5-3q1 12-5 16-5 2-3 5c2 5 7 1 10 3l4-2q-1-5 2-9 0-4 5-3 5 2 5-3-2-9-10-11l-2-2q-3-5-7-1l-14 8-3-1q-9-8-19-6-4 1-6 4l-4 3-8 2h-3c-6-3-6-2-9 3q-3 5-7 4-4-4-8-5l-6 6-12 18-1 2c1 8-3 17 6 23-7 5-4 11-4 17l2 9 2 17h-1l-2-6v-2q-2-11-8-17-10-8-15-21l-4-2-8-4-12-7q-5 0-8 3-2 10-11 11l5 14 8 2 2 7v6l-2 9-4 3-2-5q0-8-8-11l-5-2-22-13h-4l-1 3q1 7-5 13-2 4-1 7 2 5 9 6l9 2 4 2 2 13-2 16-1 2-7-13-1-6-20-14q-3 3-1 8 1 5-2 8l-1 1c-6 5 0 8 2 12l4 6 1 9-1 5-1 1q-4 3-3-1l-2-5q-4-6-10-6c-4 0-9-5-8-7q3-8-5-8-10-2-21 2-9 5-3 12l2 5q-10-1-8-9 0-6-6-8l-6-3q-12-2-13 10l-1 4q-7 4-6 12c-1 6-2 12 5 15l2 6-6-3q-6 1-7-4-2-6-6 0l-4 3q-9 3-3 11l1 5-2 13 1 3q7 2 3 7l-7 7c-3-9-9 0-14-3 3-4 7-7 4-14l-7 2-7 18 2 4q8 5 5 13c-1 2-3 6-5 4q-6-5-10-1l-5-1-3 5-1 5-3 4-1 16q1 3 3 5 4 0 5 4-1 5-6 2l-8 2 2 6 1 2-1 1q-6 0-6 7c3 7 3 9 10 8 6 0 14 10 13 16l1 6q4 0 6-2l5-6 3-4 11 1-7 10-2 3q-1 6-6 8c-7 4-7 3-5 10q1 4 2 3l6-2q4-7 10-7l6-2q9-6 21-8 10 0 12-11l5-4q7 1 11 7 2 7 7 2l10-4 3-4q-1-8-3-14-1-3-3-4l-2 4-3 7h-2l-1-8 7-14q1-3-2-7l-2-3 3-2 9 3-1 2v4l4-2 1-2 5-4q3-6 9-4 4 0 9-1l2 6c1 3 4 7 0 11l-2 5 6 2h9l1 2-7 8h-11l-5-6-9 2 2 5q6 5 10 0l5 6q7 2 8-5 8 3 10-2l13-4v-2l-3-4-3 2-1 3-7-2q7-4 1-8l-1-1-3-5-2-4-1-5-1-6 8 3q5 0 4 4l2 4q6 2 4 8 0 8 8 5l1-6q13 4 9 16-2 4-5 5-7 1-13 7l-4 2c-7-1-11 4-17 6l-8 3-3-1q-4-3-10 2l5 2q-3 3-6 2c-6 1-13 0-17 7l-18 6q-7 9-19 10l-6 1-4 5 5 2q10 0 19-6 8-5 15-8l14-5h3l36-11q16-5 33 0-1 5 5 4l31 1q10 2 20 3l45-2h31q5 1 8-4l4-11 13 5-15 10-3 7h7q24-10 48-16 31-7 62-16l39-13 17-3 11-3h16l-4-6 17-1h7c8 4 15 1 22 0 4-1 11 1 10-6l11 3 2-1-2-4-6-6q-2-3-5-3l-4 1c-6 0-13-3-18 4h-2l-12 4-4 1-1-8h-3v8l-10 2 1-1-9-1-9 1 1-5c-14-6-22 5-32 9q-2 2-3 7-3-1-4-3-3-4-7-3l-4 2 2 4 6 3-3 3h-11c3-8-6-5-8-8l6-6-5-2-6 2-1 14-21 3h-2c-5 5-13 5-15 12h-1v-1q3-5-2-5l-5-2v-2h4q5-1 7-3 1-4-2-7-5-4-12-7l-2-1 7-4 3-5h1q6-1 10 3l5-1q8-8 18-4 6 2 4-4h24q6-1 11-4l5-2 18-4 4-2q4-5 10-5c8 1 13-7 21-5l1-1c2-6 8-5 12-6l6-2 3 2q7-17 15-9l10-12q2-4 6-6 8-1 8-10h2l1 4q-2 5 4 5c4 0 8 2 12-2l4 1q-5 7 3 7h6q13 8 27 5l5-1-2-5v-4l5-8q4-5-3-6l-4-4 5-2 2 1h1l9 5q6 0 8 3l8 3q7-4 15-1 15 1 29-6l1-8c4 0 8 1 8-5q2-4 7-2l5 1q7-5 13-2l6 1 1-1 1-1h3l2 2 1 1 3 1h3l3-2 4 2 2 1c2 0 5 2 4-2v-5l1-1h1l1 1 3 1 3-2h1l1-2q-1-7 6-8l5-2 19 2 16 2q6 1 7-5l2-9 12 4q5 1 10 3 6 2 6-4l2-3 16-1 4 5q6 8 14 0h2q6 2 11-2l-6-2 2-2 5-1 4 4q4-8 12-5 5-1 8-3c5-4 2-8 0-12l3-3-4-2-5-2q1-6 6-3h3l-1-3-1-1v-1q4-2 4 2 1 6 4 6c6-2 10 1 15 1 5-1 12 4 15-4l-3-5 8 2-1-10c7-1 5-7 5-11h2l1 1 4 2v1q2 6 7 4l7 4q6 3 8-3l-7-2 1-2 11-1c4 2 7 6 11 1l3-1 13 7-1 1q-12 0-21 6h-6q-3 8-11 8l-14 5q-13 6-27 10c-5 1-11 6-16 0q-5 11-16 12-12 2-23 8l-6 2-31 9q-5 0-11 3l-4 5-8-4q-5-1-10 2l1 2h9q-7 5-14 7-6 2-14 2-8 1-8 10-4-5-9-7-6-3-11 4h11l-11 9c-5 3-14 2-18 9l-2 1-10 3-7 6q-3 1-7 3l-6 3q-9 3-16 8-13 7-25 10l-20 5-17 7h-2l-1 1h-1l-7 1q-10 1-18 4-9 5-19 3-4 0-6 3-1 4-4 4l-18 3q-8-1-14 5l-6 2-18 4q-19 5-39 6l-3-1c-5-4-8 0-11 3l-1 3 4 2 6-1q33 1 65-9l51-15 42-12 25-8 36-13 27-13 42-19 78-32 42-17 107-39 119-43q26-10 52-21 18-7 35-15l16-9 4-3 59-31 6-4 15-8 1-1h1l13-8 6-2 29-16 36-19 9-5q6-6 12-7 8-1 14-5 9-3 16-10zm-79-90q-4 2-3 7 3 3 7 3 6-1 12 3 10 7 9 19l1 17 2 12h2v-11l1-7q4-3 3-7l3-6v-8q-6-6 2-10 4-3 2-8-3-4-8 1h-1q-3-6-11-6l-2-2c-3-4-8-5-10-11l-4-3q4 11-5 17m-40-58-1 4 7-2 2 6 13-12 4-3q7 0 6-7h-5c-10-1-20 0-24 12zM660 714q8 6 12-3-3-5-7-2l-5-1h-8q-2-1-6 1l2 5q6 6 12 0m832-518 12-4 3-3q-2-2-4-1l-12 4-3 3zm-17 0q-5 2-5 6l1 2 8-4z"/><path fill="#f3c242" d="m1398 437-15 8-1-10-4 2h-4q-3-7-10-4 5-7 0-13l1-6 2-5q1-6 7-4l4 2 1-1-2-4 1-5 8-5h5l1 5-1 3 2 5 3-1 5 1 4 1v-4l-1-9 2-5 5-13v-2l-13-12q5-4 5-9l3-8 3-8 1-7 1-8-9 1-2-1 1-2c7-6 24-3 28 5l3 5q4 5 6 0 3-4 4-8 2-7 9-9h1c4 1 12 10 13 14l5 17q2 11 10 18v2l4 5 7-4 7-6q6-7 14-12l1-3 2-3c2-2 12-1 15 1l1 9 6-1v15h-2q-7 6-16 10-6 4-14 5-6 1-12 7l-9 5-36 19-29 16-6 2-6-7q-5-6-11-4-5 4-1 11l3 4 2 4h-1zm-18-11-2-8-2-2q-4 4-5 7-1 5 3 7 5 2 6-4m13 7h-1v1z"/><path fill="#f1c047" d="M1530 341c-1-6-1-6 7-8v13l-5-5z"/><path fill="#041226" d="M1530 341h2l5 6v2l-6 1z"/><path fill="#f4b738" d="M665 661h-6q-8-1-3-7l-4-1c-4 4-8 2-12 2q-6 1-4-5l-1-4h-2q0 9-8 10-4 2-6 6l-10 12q-8-8-15 9l-3-2-6 2c-4 1-10 0-12 6l-1 1c-8-2-13 6-21 5q-6-1-10 5l-4 2-18 4-5 2q-5 4-11 4h-24q2 6-4 4-11-4-18 4l-5 1q-4-4-10-3l-2-1v1l-2 5-7 4 2 1q8 3 12 7 3 3 2 7-2 2-7 3h-4v2l5 2q6 0 1 5v2l1-1h1c2-7 10-7 15-12h2l21-3 1-14 6-2 5 2-6 6c2 3 11 0 8 8h11l3-3-6-3-2-4 4-2q4-1 7 3 1 2 4 3 1-5 3-7c10-4 18-15 32-9l-1 5 9-1 9 1-1 1 10-2v-8h3l1 8 4-1 12-4h2c5-7 12-4 18-4l4-1q3 0 5 3l6 6 2 4-2 1-11-3c1 7-6 5-10 6-7 1-14 4-22 0h-7l-17 1 4 6h-16l-11 3-17 3-39 13q-31 9-62 16-24 6-48 16h-7l3-7 15-10-13-5-4 11q-2 5-8 4h-31l-45 2q-10-1-20-3l-31-1q-6 1-5-4-16-5-33 0l-36 11h-3l-6-5c4-7 11-6 17-7q3 0 6-2l-5-2q6-5 10-2l3 1 8-3c6-2 10-7 17-6l4-2q6-6 13-7 3-1 5-5 4-13-9-16l-1 6q-8 3-8-5 2-5-4-8l-2-4q1-4-4-4l-8-3q-8-6-11 2-5 1-9 1-6-2-9 4l-5 4-1 2-4 2v-4l1-2-9-3-3 2 2 3q2 4 2 7l-7 14 1 8h2l3-7 2-4q2 1 3 4 2 6 3 14l-3 4-10 4q-5 5-7-2-4-6-11-7l-5 4q-1 11-12 11-12 2-21 8l-6 2q-6 1-10 7l-6 2q-1 1-2-3c-2-7-2-6 5-10q5-2 6-8l2-3 7-10-11-1-3 4-5 6q-2 2-6 2l-1-6c1-6-7-16-13-16-7 1-7-1-10-8q0-7 6-7l1-1-1-2-2-6 8-2q4 3 6-2-1-4-5-4-2-2-3-5l1-16 3-4 1-5 3-5 5 1q4-4 10 1c2 2 4-2 5-4q3-8-5-13l-2-4 7-18 7-2c3 7-1 10-4 14 5 3 11-6 14 3l7-7q4-5-3-7l-1-3 2-13-1-5q-6-8 3-11l4-3q4-6 6 0 1 5 7 4l7 3 6 6 4 2 1-5 1 1-1-1q7-2 12-8v-1l5-4 1 2 7 1 2-2 5-2q4 2 7-2l1 1h2l10 2-1-12c5 3-1 10 6 10l6-6 3-7 2 5q-1 4 3 1l1-1q7 3 7-4l3-9h2l1 9 8-1-10-11 5-3 1 4 5-1v12q12-2 6-12l7 1q4 3 5-1l4-4q5 3 4-2l2-6 1-1 2 4 1-1 2-4 9-3q5-2 9-7l5 8 1-6 5 2 5 1v-1h-5l5-5 4-2q4-6 7 1c3-6-1-10-3-14l3-3q5-6 6 2l3 4v2l2 6h1l7-2q-3 5 1 8 6 2 7-4 6 0 3 5-2 6 4 5 6 0 7 6l-6-1 3 5-2 1-7-9h-1v7l-5 5v-4c4-7 4-7-4-9l-4 1-4 1-8-2c-1-4 1-2 3-2l5-1-1-6-3-2-8 6-3-4-2 7h5l2 5-1 9 3-3q1-2 4-3l3 3 1 1 6 2-9 9 1 2 7-3 2 5c4-2 6-8 12-6v1q3 8-5 9l5 4 5-1c4 4 8 0 12-1l-1-8-1-3-4 2-1-6 5-1q1-8 8-5 5 2 8-1c2-6 7-4 11-3v5h-6l5 4-3 2 2 17q2 6-5 8l14-2 2-2 1-9-3 4-2 4c-8-6-5-12-1-19l4 11 11-15c4-4 9-2 13-5l1 2q9 5 14-3h4q-3-7-9-10 3-4 5-1 4 6 7-2 1 9 6 5l10-10v2l-2 7 7 4-5 2 5 5 10 1q3 4 8-2v5q-3 5 1 9l-1 5q-2-2-5-3l-3 2q1 3 3 5c2 2 15-2 17-5l6-1q4-5 9 0 4 2 5 6-1 1 2 2c1-8 1-8-5-13l-3-2q9-5 18 0 2-9 9-5l3-9q-1-3-6-6 8-1 15-8l-6-3q-3-1-7-3v-4h3l1 4h2c7-1 13-2 16 5q4 6 7 0h1q3 6 3 12 0 5 1 9l8-3v-2l-8-2 5-4 5 5 2-5q5 5 11 2l2 2c3 6-1 7-4 9l1 3h-5l2 7 14-4v5h-4q-4 0-3 5l2 6h-4l4 5q4 6 9 2 6-6 7 2l-3 2 3 6q2-2 5-3 2-1 4 3l1 4-1 1 1-1c6-3 3-6 1-9l4-2q7-1 4-7l1-1-1 1-7-2v-1l15-5 6-1h2v6l-1 5h1v-5q3 2 2 4 0 6 6 8l9 4 4-7 3 7-5 7q-5-1-8-1-2 2-5 7c-1-2-1-7-5-4v4l-2 5h-5q3 5 5 0l7 6c4-4-2-6-4-9l6 1q2 5 6 3l1 1-1-1 4-4 4 7-5 2c6 4 8-3 13-2q-1 4 2 7c3 2 3 7 8 6h1v7h-1l-4-1-2-3-3-2zm-3-15-1 1zl1-1zm-351 98h2l-2-6q-1 8-7 4l-18 8-1-1 3-6-6 2c-1 5 0 9-7 10l-3 5 2 2 4-2q5-6 8 0l9-9q4-4 7-1l3 9zm86-9q1 4 4 0 2-2 4 0l3 3c8-4 11 3 15 7q-2-10-10-15l-6-5-2-3c-1 4 5 7 0 10-6 2-4-5-8-6zm-47 23 5 3 1-11 9-6h-4c-5 5-11 3-17 2l-1 2-1 3c8 0 8 0 8 7M138 621l3 6h2l5-11zm462 106-3-1zm-303 33v-2l-2 1-5 4 2 4zm105 3-2 3 11-2v-1zm-10-33-5-5h-1l1 5c2 0 2 5 5 0m73-144-2-2v1zm-232 7-1 2h2zm3-10v2h1zm391 43zm-300-64zm-7-9q0 1 0 0"/><path fill="#f7c13f" d="m1314 483-16 9q-18 8-35 15-26 11-52 21l-119 43-107 39-6-3q11-6 23-8 11-1 16-12c5 6 11 1 16 0q14-4 27-10l14-5q8 0 11-8h6q9-6 21-6l1-1-13-7-3 1c-4 5-7 1-11-1l-10-8-9-13-4-2 1-1q-1-4-4-5-5-2-7 3l-4 5-4-4-5-3v-2l-1-9h-14l-1-15h-12l2-9 3 5 4-2-1-1-2 1-3-6-10 4-1 4q-8-4-8-12-4 2-5 5c-1 8-1 8-9 8-4 1-8-2-11 2q-6-4-3-10c-5 2-5-3-7-6l-4-4-2 1 1 2v6h-4l-5 1 2 5q4 3 1 5h-1q-7-10-19-7l-6 3 1-5-1-4-5-1-1-8 2-7-2-3-2 3-2 4-7 9-1 2c-3-1-5-4-7 0q-3 4-7 0-2-6-8-1 10 2 6 6-3 5-4 11v2l-3-4-2 1 3 7v4l-4-1-1-1-12 6q-6-1-4 4l-2 3-2-3v-2c-5 0-5 0-9 3h-3v-4q5-3 6-8 3-8-5-10l-11-3v-14l-13 10-5-6 7-5-9-7-4 2 6 4-10 18c3 5 0 14 10 17q-6 0-7 4l-14 1 1 5-2 1-7-9-5-4 6 1c-2-1-3-6-6-1q-7-2-11 2l-9 7q-5 2-3 6v4q-6-7-1-14l2-6 6-1 2-7-16 2 1 2 1 1c2 2 1 9-3 10l-4-2 3-3 3-3-6-2q-4 5-8 2l-3 5q-6 5-3 9l-4 5 6-1v6l-2 3-4-2-2-1-4-12-2 6-2-4-7-8q-2 0-6 1l-7 2q-8 0-8 8l-5-3-2-4c4-3 0-7 3-10h-3l-5-3q3-2 5-3l6-1-3-10 11 2v-4l-8-7-2 2-6 13-5-3-3-4-2 1v9l-2 3-3 1-3-3h5l-3-7-2 7-5 3 4 3 1 1-6 9-5 2h-4q-5-5-5 3l5 3-6 2c-2-4-6-2-9-3l-3-2 3-2 5-2-7-5c-1 2-17 3-19 1l-2-4-3-6-2 1v5q2 4-3 3l-4 3-5 2q-2-5-1-9l5-7-5-6-5-4 1-2 3 1 1-1-4-4-8 4-8 2v-1q6-7-4-7l2-4-5-1-4-4v-3l-5 4c-3 3-3 9-9 9l1-4-7-2q-1 5-6 3h-8c4 7 0 11-2 16h-6l-1-5c0-4 5-8 4-13q0-2 4-3l9-2q-6-10-13-8-6 2-7-5-1-2-3-5c5-1 2-5 3-7q7-5 9 3l2 2 6-9-5-5-6-2c-1 6-7 3-9 6q-3 0-10-2l-1 6-3 3-3-3v-2c5-9 2-18 3-26 0-4-2-8 3-9q10-1 13 6 5 10 15 16 7 5 16 3h10q15 2 29 6 7 2 13 6l8 2 21 2q4 1 7-2c6-7 14-8 21-12l24-10 2-4v-14q0-4-4-8l-6-7 1-2h15q7 0 9-4 3-4 9-6t6 6l10 3 1-4h8q5-3 11 1 11 7 24 5h16l22-2c14-1 26 4 40 6q24 2 48 2c10-1 18-6 27-6l1-1 36-2q15 5 31 3 18-1 36-4h9l12-3 5-2c11 2 21-4 32-2h2l3 1h26q7 3 11-2l3-2 8 3-3 4-3 2q7 10 16 4h3q6 1 8 3 0 5-2 9l-1 7c-3 11-3 11 6 17q-4 9-10 2l-1-2q-5-6-11-7l-12-4-11-9q-2-4 0-9l5-2-2-5-9 1-2 4-2-1-4-3-2 5-5 5-3 4-2 6c-3-5-2-12-9-15l-2 6c-13 1-2 8-2 12l-4 2c1 2 1 2-7 14l2 3-5 2c5 6 5 6 4 8l-2-3c-6 4 0 7 0 10 12-2 11 8 14 15l2-5 3 7 1-1 1-7h2v5l9-4 5-8-13-5 2-5q4-3 1-8-3-4-2-6 1-5-3-7l-5-3 1-3c5 7 8 3 12 0q5-2 10-3h6l4 2-3 3-4 2 9 6 7 5-1 1-1 4 5 2 8 1 3 4-3 3c7 0 14-10 20 2l1-1 2 1q6 3 14 1 5-1 1-5l-2-5q8 4 12 4c11-2 17 7 25 10 6 3 11 10 18 3q3 6 8 3l6-3-7 16 19-1-11-16 20-16 9 1 3 4 4-4q8-4 14 0l8 7q-1 4-9 4l1 6-12 2h-4l2 4q5 3 1 6l-1 5 8 5q5-1 9-4v-4h-3q-5 1-7-4h18l4 1-1 4q-4 6 2 8zm-264 25q-3-3-7-1l-2 4 9-1-2 4-1-2v11l10-9c-7-1 0-6-4-8zM742 407zl-1-1c-3-4-3-11-11-13v4c-5 2-8-5-13 0zm488 69-1 1q4 1 6 4 2 7-3 13-7 8 0 13l5-5 4 6 4-1 9-5 21-7 6-3c-10-1-7-9-11-13q-8 2-19-4h-8l-11-1zm-26 23c2-6-3-6-6-7l-5 8q-5 6-3 12v3l-12-2q-5 0-5 4 2 6-5 6l2 9 9-2 30-10q2-5 8-5c6 1 6-5 10-7l-1-3-13-4-1 2 2 2 2 2-4 2-11-5-3-3zm-172-5c-1 1-5 2-4 3l2 7 6-6h2zm25-52 4-1-2-3-7-1-4 2 1 4 1-2zm-281-43 2-1c-3 2-9-4-11 3l7 2zm-111 56 3 5-1-10q-1-4-6-3zm386 40-2 1 3 4 3 2v-5zm83 47q0 6 8 0zm-255-43-2-2v4zm250-104v-2l-2 2zm-73 35 2-1-1-1zm95-32 1-1zm-58-4v1zM622 509v1zm252-10q0-1 0 0"/><path fill="#f6c442" d="M1161 428c-9-6-9-6-6-17l1-7q2-4 2-9-3-2-8-3h-3q-9 6-16-4l3-2 3-4-8-3 14-5 24-13 10-8 3-1 4-1 7-6q9-9 19-16 5-4 13-6l14-7q8-6 12-14l8-15 6-2q20 1 36-11 5-4 7-9 4-8 13-13 9-3 11-12 1-7 7-6l13 2 6-2 18-8q4-3 6 2 3 6 7 1t9-2h5v1l-9 16-4 3-15 6 3-5c-6-2-13-2-13-10h-2l-12 19q-2 6-7 5l-2 2q-1 6-6 8c-5 2-4 7-5 11l-8-2q-2-1-5 1l1 5 3 2v6l-6 1-7-1-7 2-12 18 16 5h3l7-1-3 6-1 1q-3 3 0 7 1 2-1 6c-3 5-8 3-12 2l-9-2-18-1-7 6q-3 1-1 4l14 27v8q-3 2-6-3l-5-4q-10-3-12-14l-7 6q-2 2-1 5c0 7 1 7-6 8l-5-1h-7c-4 5-10 4-15 6l-12 5-6 6-3 5-5 8q-7 6-13 12l-6 8z"/><path fill="#f7c13f" d="m323 548-7 2-2-17-2-9c0-6-3-12 4-17-9-6-5-15-6-23l1-2 12-18 6-6q4 1 8 5 4 1 7-4c3-5 3-6 9-3h3l8-2 4-3q2-4 6-4 10-2 19 6l3 1 14-8q4-4 7 1l2 2q8 3 10 11 1 5-5 3-5-2-5 3-3 4-2 9l-4 2c-3-2-8 2-10-3q-2-3 3-5 6-3 5-16l-5 3q-3 4-7 4-2 1-3 5l2 10 1 7q5-1 9-1 4 1 10 4 4-4 3-10l2-5 13-5 4 6q1 5 3 8 3 4 8 6l1-1-1-9q1-8-6-12l-2-3q-2-12-11-19 4-7 3-16-1-3 3-5l6-4 8 6 9 3 9 3h5q5-2 9 3 8 7 4 18l-6 3 1 2-5 4 4 5c8 2 8 2 6 8l5 2v1l-9 4-2-4q-7-2-6 4c6 3 7 11 2 16h-2q-5-2-7 4l-8-8-3 1q-5 0-6 5l-9 9-1-5-6 9h-8l-6-1-5 5q-9 5-9-5l-2-5h-1q-2 4-1 9 1 6-5 7l-3-4-2 3-3 4-2 2-3-1c3-4 2-10 8-10-3-3-8-2-9-7l5 1q-10-8-15 1l-4-1c-4 6 2 7 5 11l-4-1-9 2-3 2h-1l-4 7 3 2v4l-7-8h-5l-1 2-2-2v-3l-1 1q-3-9-10-2c-4 3-9 5-7 11h3l-2 4c-6 2-4 7-3 11"/><path fill="#f4b93a" d="M967 603q-8 8-14 0l-4-5-16 1-2 3q0 6-6 4-5-2-10-3l-12-4-2 9q-1 6-7 5l-15-2 10-2q-4-4 0-7 2-2 1-4l-7-6-1 7 5 2v2q-9-1-15-4-6-6-11 0l-3 7-5-7c0 7-4 2-5 2l-4 4-1-2c3-7 2-7-5-8q-6-1-4-9l-4-3q-2-10-11-10l-5-2v-3l6-5-3-1c3-4 9-4 10-10q-4 1-6 3-5 4-8-2l-1-3 8-4c-6-4-9 0-12 2v7l-4 3-2-1 4-4-3-3 1-6q9-2 12-11l-2-4 3-4h5v2l3 3 3 4q7-1 4 6c8-1 6-7 6-12l2-1 2 3v-3c5-2 1-5 1-7h2l2 2c0 5 3 3 5 3l3 8-6 2 1 2 7-3c2-2 5-5 8 0l3-1 2 5 2-5 7-2 1 9 3-5v-7h3l2 6q2 1 5-1l-1-1-2-7h7q5 4 9 1 4-2 8-2l7-4q1-5 7-5l4-2v-2l4 5-4 7q-1 4 4 5v3q-8-1-8-10l-5 5-4-1 3 4c5-2 5 4 9 5l-13 5 9 7 3-4 3 4 1-5h7v16l1 4-1 12-1 1 1-1q4-2 7 2l6 2v-5l2 3c3 6 11-1 14 4h3c-3-3-5-8-10-7q-3-1-2-3c3-5-1-5-4-6q-2-12 7-7l4-6 5 8q6-10 17-2l10 8 6 2 1 1 1 3h-3q-5-3-6 3l5 2 4 2-3 3c2 4 5 8 0 12q-3 2-8 3-8-3-12 5l-4-4-5 1h-5l-2-4-1 1-1 4zm-111-54zc2 1 4 4 8 0l-3-2q4-3 5-7c1-1-3-3-3-4l-11 7-5-3h-3v2l4 10zm125 17 3-7-2-2-5 3c2 3-3 9 4 11zm-13 1 3 5h1v-11h-8zm22-4-7 3 3 4 3 3 2-6 3-2zm-72-29q3-4-1-5l-6 3c0 5 3 2 5 2zm-69 50 6-2-12-4zm-10-9-4 3q1 3 3 5zm124 7-3-3-1 2zm-121-27 2-1-1-1zm127 3-1-2h-1zm-5 12 1-1v-1zm-61-39 1 1h1zm-82 37"/><path fill="#f7c13f" d="m1398 361 13 14-5 13-2 5 1 9v4l-4-1-5-1-3 1-2-5 1-3-1-5h-5l-8 5-1 5 2 4-1 1-4-2q-6-2-7 4l-2 5-1 6q5 6 0 13 7-2 10 4h4l4-2 1 10-6 4-33 15 5-4 8-4q-6-7-12-2l-5 1-1-4c-1-7 0-14-7-18v-5l3-18h-1l-6 8v1q2 7-2 13l-11-5-4 1q-4 4-12 2-9-1-17 2-4 3-8 2l-12-4 1-6q-2-9 9-8l19-2c8-2 9-10 13-15q7-8 12-17-1 16 14 19 4-4 8-5 5-1 5-4l3-3 3-8c-3-2-4-7-10-5-7 2-7 1-8-7l8-1c8-4 10-4 15 4l5-4q6-6 4-13 10-4 16 3h1l5-1 8 3zm-56 38-4 3 3 4zm-14 10-1 3h2zm4-3-1-1h-1z"/><path fill="#f5bc3c" d="M936 531v-3l1-3v-5c6-3 0-9 4-12q-5-1-9-3-3-4 0-9l7 1h1c1 7 6 8 10 11l-7 8 2 2q8 1 7-8-2-5 3-8l4 4 4-11c2 8 2 8 10 3l-1-3c3-4 7-1 11-2v3l-7-1-1 2 6 6c-6 1-9 11-17 4l-1 13q3-6 10-4l5-3 4-2 6-2 1 3v2l1 4 3 3 3-5-1-2 3-3 10 2 1-6 7 1v-4q3 3 3 5l2 6 3 4q-4 3-4 5l2 3 4-2 1-1 10 2 4-4 5 3 4 4 4-5q2-5 7-3 3 1 4 5l-1 1 4 2c-5 2 0 4 0 5q-8 1-12 9-4-1-3 3c0 4 2 10-5 11l1 10-8-2 3 5c-3 8-10 3-15 4-5 0-9-3-15-1q-4 0-4-6 0-4-4-2l-6-1-10-8q-11-8-17 2l-5-8-4 6q-10-5-7 7c3 1 7 1 4 6q0 2 2 3c5-1 7 4 10 7h-3c-3-5-11 2-14-4l-2-3v5l-6-2q-3-4-7-2l1-12-1-4v-16h5l-8-8zm23 1 1-6-9-2 3 10-3 2 3 4zm29-10-8-4q-6-1-5 4l1 4 10-3zm-45 8q-2 5 4 4c3-8 3-8-3-11zm5 18-3 3 1 1 4-2zm54-31 1-1h-2z"/><path fill="#f3b638" d="m817 562 3 1-6 5-3 1 3 2 5 2q9 0 11 10l4 3q-3 8 4 9c7 1 8 1 5 8l1 2 4-4c1 0 5 5 5-2l5 7 3-7q5-6 11 0 6 3 15 4v-2l-5-2 1-7 7 6q1 2-1 4-4 3 0 7l-11 2-20-2c-11 0-11 3-11 10l-1 2-3 2-3-1-1-1h-1l-1-1v7l-4 2-2-1q-1-4-4-2l-4 2h-2l-3-1-1-1-2-2h-2q-1 0 0 0h-1l-1 1h-7q-6-3-13 2l-5-1q-5-2-7 2c0 6-4 5-8 5l-1 7-6-7q11 0 6-9v-2q1-4-3-3c-9-2-5 6-7 8l-8-7-2 4-5-7-3 12-6-14v-2q7 0 9-5l-9 5-1 2-4-1-3-3-9 5c-5 2-11 2-12 8l-1 1-4-4c-6 1-8-4-11-7l2-6v-4l-4-1-1 8c-5 2-10-3-12 3l-6-1 4-6q3-5-3-5c2-5 4-2 7-1l1 3h2l-3-3v-4l6 1 1 4 7-11v-1l-6 2q2-5-4-3l4 3q-1 5-4 1l-3-2q1-6-4-6-5 1-8-4l6-2 5-1 6-7q5-6 8-1l4-2 5-1q4-5 7 1c3 8 11 10 16 4q6 8 11-1 3-2 5-1l2 4v5h-2l-2-2q-1 5 6 6l2-4 1 1 17-1 1-1-2-5 6 3 1-5c6 4-2 7 0 10q4 3 5 7 0 5-1 11-5 1-7 4l2 6 2-1 1-3 3 2c0 4-6 6-3 12l5-7 6 2 3-6q3 3 6 3l3-4-3-4q-1-4-4-1-6 3-8-3l6-1 7 1 7 4v-1l2 4q-1 7 4 7t6-6l1-4c1 4 4 8-1 11l-2 1 2 1q7-4 11 2c3-3 6-5 1-7q-3-2-3-5 2-8 11-14l-4-5-4 5q-2 9-10 10l-4-5-2 4-6-2q9-2 8-10l-3 4-1-3 9-5-13-2-6-5 3-4 1 1-1 5c9-2 10-3 9-11v-3c1-6 4-3 7-1zm-61 23h-4v10l-7-5v9l4 3h-10v2c7 2 14 4 19-3l-3-8 2-1 6 9 4-5c-4-7 4-5 6-9l-3-2-11-2zm-39 11 2-3q-2-5-6-9-2 0-6 2l-4-5-5 8-1 3q3 5 0 9l-1 6q8-3 13-8 2-4 8-3m3 4q-4 4 0 5l13-9q-2-6 2-11v-4l-7-2-1 2 5 2h1q-4 10-13 17m15-8q0 6 5 5l1-5-1-5-3 3zm81-4 1 4h1l4-8-6-2zm-4-8h2l-2-2zm-83 26 1 1 1-2zm113 2-2-1v1zm-12 9h-2l1 1zm-141-16zm13-31q-1 0 0 0"/><path fill="#f6bd3d" d="m288 559-5-2-1 6-5-8q-5 5-9 7l-9 3-2 4-1 1-2-4-1 1-2 6q1 5-4 2h2l-1-1-1 1-4 4q-1 4-5 1l-7-1q6 10-6 12v-12l-5 1-1-4-5 3 10 11-8 1-1-9h-2l-3 9q0 6-7 4l1-5-1-9-4-7c8-2 8-2 6-10 3-1 6 2 6-2v-4l7 4 4 4 7 13 1-2 2-16-2-13-4-2-9-2q-7-1-9-6-1-3 1-7 6-6 5-13l1-3h4l22 13 5 2q9 2 8 11l2 5 4-3 2-9v-6l-2-7-8-2-5-14q9-1 11-11 2-3 8-3l12 7 8 4 4 2q5 13 15 21 6 6 8 17l-3-4q-1-8-6-2l-3 3c2 4 6 8 3 14q-3-7-7-1l-4 2zm-71 10q0-6-5-1l6 5v-1zm43-9 5 1v-1l-6-6zm-11 1-2 2 1 1zm-35 13-1 1 1 1zm58-18-1-1-1 1zm-62 18zm36-13q-1 0 0 0"/><path fill="#f8c03f" d="M435 509h1l7-4 9-9q1-5 6-5l3-1 8 8q2-6 7-4h2c5-5 4-13-2-16q-1-6 6-4l2 4 9-4v-1l-5-2c2-6 2-6-6-8l-4-5 5-3 9 1h8l6-3h1l10 2q2 3 3 5 1 7 7 5 7-2 13 8l-9 2q-4 1-4 3c1 5-4 9-4 13l1 5h6c2-5 6-9 2-16h8q5 2 6-3l7 2-1 4c6 0 6-6 9-9l2 4v1q-2 5 3 7l4-6v-3l5 1-2 4q10 0 4 7h-7l1 5-2 5 4 2 4 2-4 3q-5 1-9 4-2 4-3 9l-6-3c-1-6-3-4-6-3h-6q-3 1 0 3h6l-7 11-2-7h-5v-6l3 2h1l-2-4v-4l5-9-5 2-2 4-3 2h-4l-4-4-3 3-5 1q-6 5-7-3l-2-5q-7 3-4 8l2 5-2 7c1 4 3 10-6 8q-5 3-11-1l5-1q-3-5-8-5l-1-4 3-6v-3h-3l-1 3-1 4-2-1-2-11-4 3-3 1 1 1h1l-4 7 2 3-3 4-7-4v4c-6-2-3-5-3-8-3 2-3 2-1 12l-8-2 3-6q-8-5-15 1zm110-2-3-2-1 2 4 4 1-1zm-39-29q-3-2-3 2c-1 3-5 5-1 7l7 5q7 2 3 7l1 2q5 2 7-2l-3-7q-2-5-6-4l-4-1-3-1 2-2 3-1-1-5 2-3h-2zm52 29 2 1 4-9-9 1q-5 2-5-3l-1-3c-6 5 1 8 0 12 4-3 4-3 9 1m-38-23 1-7 2-4h-5l-2 1q-4-1-4 4-1 7 8 6m37 9v4q6 1 8-4l-4-2v-5l-4 1zm-73 9 3 3 5-7 6 4-2-9zm21-31-7 1-1 7-1-2zm10 0 4-2-8-2-3 2 3 3zm33 17-3-1 2 5 2-1zm-7-1v-2h-2zm-77 12h2v-1zm18-1v-1l-1 1zm19 16 1-1h-1zm-5-24v-1h-1zm46 1zm-8 3zm-29 0v2l1-1zm47 0"/><path fill="#f3c143" d="M1329 283q6-2 11 4l-1-6q-1-4 3-7 3-2 5-7 3-5 7-3l7 7c3 9 5 11 15 10l15 1 3 3-1 7-4-1h-2c-3 3-5-1-7-3l-4-3-1 1 1 3-1 5-5-2-1-4c-2-5-2-5-9-2l11 12q2 0 7-1l2 5 9-6 8 15-2 4q-6 6 1 11l2 1 3 5-7 2q-4 0-3-5v-4c-10 2-16-6-24-11l-2 6v4l-6 1c-6 3-6-6-11-4q0 9-10 9c-7-1-12-7-18-10l-2-2c2-8-3-10-8-14l-2-3 3-3 7 1c8-1 8-10 11-16"/><path fill="#f7bc3e" d="m149 607-1-2-5 4v1q-5 6-12 8l-1 5-4-2-6-6-3-6c-7-3-6-9-5-15q-1-7 6-12l1-4q0-13 13-10l6 3q6 2 6 8-2 8 8 9l-2-5q-6-7 3-12 11-4 21-2 8 0 5 8c-1 2 4 7 8 7q6 0 10 6l-3 7-6 6c-7 0-1-7-6-10l1 12-10-2c-1-8 4-1 5-3l3-8-1-5-4 1-8 7q0-6-7-4l2 9c3-1 6-3 7 2q-3 4-7 2l-5 2q0-7-5-8h-7v1l-7-2q-1 9 6 4 6 2 4 6m22-19 3-3v-4l-4-1-2 1 2 2zm-35 6q0-1 0 0"/><path fill="#f6c442" d="M1344 465v2l-4 3-6-11-6-2q-5-1-7-1l-2 7q3 6-2 10l-3 3 4 4-4 3-7-2q-6-2-2-8l1-4-4-1h-18q2 5 7 4h3v4q-5 3-9 4l-8-5 1-5q4-3-1-6l-2-4h4l12-2-1-6q7 0 9-4l-8-7q-6-4-14 0l-4 4-3-4-9-1 1-10 12 4q4 0 8-2 8-3 17-2 7 2 12-2l4-1 11 5q4-6 2-13v-1l6-8h1l-3 18v5c7 4 6 11 7 18l1 4v7l1 2 2 1zm-30 4-1-3-2 2z"/><path fill="#f1b63b" d="m979 607 6 3-42 17-78 32-42 19-4-6 7-2 7-6 10-3 2-1c4-7 13-6 18-9l11-9h-11q5-6 11-4 4 2 9 7 0-10 8-10t14-2 14-7h-9l-1-2q5-3 10-2l8 4 4-5q6-3 11-3l31-9z"/><path fill="#f8bb3b" d="m670 613 6 1c2-6 7-1 12-3l1-8 4 1v4l-2 6c3 3 5 8 11 7l4 4v2l-3 1 1 1-3 3-2 2 2 1v2h-1l-3-1-4 2 4 4q7 1 3 6l-5 8-1 4q1 0 0 0l-2-3h-1l1 9q-14 3-27-5v-11l3 2 2 3 4 1 4 3h7l-1 5 1 1 4-2-4-4q-4-7 3-6-1-8 6-6l-7-11 7-1c2-3-5-7 3-9l-17-12c2 3-3 7 3 9l-4 2-2 6c-2 2-1 13 2 14l1 1q5 0 5 5c-6-3-7 3-10 5v-7q2-4-2-3l1 3c-5 1-5-4-8-6q-2-3-2-7c-5-1-7 6-13 2l5-2-4-7-4 4q-4 2-6-3l-6-1c2 3 8 5 4 9l-7-6 2-5v-4c4-3 4 2 5 4q3-5 5-7 3 0 8 1l5-7 2-3c3 1 3 7 7 2zm-3 5h-6v8h3l-1 2c6 1 3 7 6 11q6-5 3-10-4-6 1-10zm30 12q0-1 0 0"/><path fill="#f1b639" d="M733 706h2v6l-42 12-51 15q-32 10-65 9l-6 1-4-2 1-3c3-3 6-7 11-3l3 1q20-1 39-6l18-4 6-2q6-6 14-5l18-3q3-1 4-4 2-3 6-3 10 1 19-3 8-3 18-4l7-1h1z"/><path fill="#f4b738" d="m701 632 3-3 3 6c1-6 5-3 8-4l-4-3-5-1 1-3h8l2 4 1 1 4 1 4-1v2l2 5 2 3 2-3 4-4 2-2c-1-4 0-10-6-11l-2 4h-1l-1-4v-8l3 3 4 1h1l6 14 3-12 5 7 2-4 8 7c2-2-2-10 7-8v3h3v2q5 9-6 9l-1-2h-1l2 2 6 7q-14 8-29 7-7-3-15 1l-8-3q-2-3-8-3l-9-5v-5m20 4q0-1 0 0m-3 1q1 0 0 0"/><path fill="#f1c047" d="M1459 274q8-6 4-17l4 3c2 6 7 7 10 11l2 2q8 0 11 6h1q5-5 8-1 2 5-2 8-9 4-2 10v8l-3 6q1 4-3 7l-1 7v11h-2l-2-12-1-17q1-12-9-19-6-4-12-3-4 0-7-3-2-5 4-7"/><path fill="#ebb038" d="m195 711 1 6 1 5 2 4 3 5 1 1q6 4-1 8l7 2 1-3 3-2 3 4v2l-13 4q-2 5-10 2-1 7-8 5l-5-6q-3 5-10 0l-2-5 9-2 5 6h11l7-8-1-2h-9l-6-2 2-5c4-4 1-8 0-11l-2-6 6 4q0-7 5-6"/><path fill="#f2bc3e" d="M735 712v-5l17-8 20-5q12-3 25-10 7-5 16-8l6-3 4 5-27 13-36 13z"/><path fill="#f6bc3d" d="m153 780 6 5-14 5q-7 2-15 8-9 6-19 6l-5-2 4-5 6-1q12-1 19-10z"/><path fill="#f1c047" d="m1418 215 2-1c4-12 14-13 24-12h5q1 7-6 7l-4 3-13 12-2-6-7 2z"/><path fill="#f7c13f" d="m1318 480-4-4 3-3q5-4 2-10l2-7q2 0 7 1l6 2 6 11z"/><path fill="#f3c242" d="M1380 357zq-6-8-16-3l-4-3q3-7-2-13-4-4-1-9l9-2v1c-3 2-4 13-2 16l4 1h4q6 3 7-4c6 4 2 10 2 15"/><path fill="#f5bc3c" d="m1077 542 10 8-11 1-1 2 7 2q-2 6-8 3l-7-4-7-4v-1l-4-3q-1 0 0 0v-2l8-2v-1c4 2 8 6 13 1"/><path fill="#f7c13f" d="m1400 436-2-4-3-4q-4-7 1-11 6-2 11 4l6 7zM1378 342q-1 6-7 4h-4l-4-1c-2-3-1-14 2-17q4-2 5 2l5 7z"/><path fill="#f3c143" d="m222 566-4-4-7-4v4l-6-2v4l-7-2q3-3 2-8-2-5 1-8l20 14z"/><path fill="#f3b638" d="M660 714q-6 6-12 0l-2-5q4-2 6-1h8l5 1q4-3 7 2-4 9-12 3"/><path fill="#f3b739" d="m198 562 7 2c2 8 2 8-6 10-2-3-8-6-2-11z"/><path fill="#efbe47" d="m1492 197-4-2 3-3 12-4q2-1 4 1l-3 3zM1476 196l3 4-8 4-1-2q0-4 6-6"/><path fill="#ebb038" d="M972 597h3l-1 2 6 2q-5 4-11 2z"/><path fill="#efbe47" d="m1375 337-5-7q-1-4-5-2v-8l2 5q8 0 8 12"/><path fill="#ebb038" d="m692 666-1-9h1l2 3 3 5z"/><path fill="#efbe47" d="m1392 360-7-3 5-3 5-1-2 5z"/><path fill="#f1b639" d="M847 621v-2c0-7 0-10 11-10l-4 2q-7 1-6 8z"/><path fill="#2c2820" d="m971 597-2 6h-2v-5l1-4 1-1z"/><path fill="#f6c442" d="M1126 381q-4 5-11 2 4-5 11-2M1112 383"/><path fill="#f7c13f" d="M492 455h-9z"/><path fill="#efbe47" d="M1056 544v2h-3q-1-4 3-3zM1060 550l7 4q-5 2-7-4"/><path fill="#ebb038" d="M804 625h6z"/><path fill="#f1b639" d="m833 629 4-2c1 4-2 2-4 2M827 626q3-2 4 2z"/><path fill="#efbe47" d="m1056 547 4 2z"/><path fill="#f7c13f" d="M506 453"/><path fill="#f1b639" d="M837 626v-3zM837 622v-2h1zM843 623l3-2z"/><path fill="#f6c442" d="m1401 227 1-2h1z"/><path fill="#f6bc3d" d="M160 785h2z"/><path fill="#ebb038" d="m818 627 3 1z"/><path fill="#f7c13f" d="M500 456h-3z"/><path fill="#ebb038" d="M695 659v-3zM815 624l2 2z"/><path fill="#f6c442" d="M1089 382h-3z"/><path fill="#f3b638" d="M698 636h2z"/><path fill="#f7c13f" d="M494 456h-2zM316 550z"/><path fill="#f3c143" d="M198 562z"/><path fill="#f2bc3e" d="m733 706-1 1zM732 707z"/><path fill="#f7c13f" d="M1398 437z"/><path fill="#f5bc3c" d="m1007 567-1-1z"/><path fill="#f6bd3d" d="M203 595zM313 544z"/><path fill="#f1b639" d="M839 621z"/><path fill="#ebb038" d="M813 624q-1 0 0 0M811 625h1zM817 626zM822 628h1z"/><path fill="#f7c13f" d="M1380 426q-2 6-6 4t-3-7q1-3 5-7l2 2zM1394 433l-2 1v-1z"/><path fill="#f6bc3d" d="M670 613h-3l-2-6-5 4-2 3-3-7-4 7-9-4q-6-2-6-8 1-2-2-4v-6c3-5 5-1 6 1h1l-3-10-7 5 1 4-6 1-15 5-1-4-1-5h-1c1 3-4 8 3 10l7 2q3 6-4 7l-4 2c2 3 5 6-1 9l-1-4q-2-4-4-3t-5 3l-3-6 3-2q-1-8-7-2-5 4-9-2l-4-5h4l-2-6q-2-5 3-5h4v-5l-14 4-2-7h5l-1-3c3-2 7-3 4-9l10-1 1 5-7-1q-3 5 0 9l2-4 6 4-1-7h5c2 1 6-1 5 4l-4 3q-9 2-1 8 2-3 5-2t4-3c3 5 6-1 10 2-4-6-4-6-10-4l-3-3 17-3h2l5 3q4-2 7-6l-7-6-5 8-2-5-2 4-4-1 2-3h-3v-4l1-4q-2-2-4-2l-5 2 2 2-2 4-11-15q-4 0-4-6-2-6-10-5-7 4-9 12l7 1v4l-3 2 2 4 2 2q-6 3-11-2l-2 5-5-5-5 4 8 2v2l-8 3q-1-4-1-9 0-6-3-12 8 1 7-6l3-6q5 6 10-1c-6-1-11-5-17-1l-8 3c6 6 6 6 4 11q-3 6-7 0c-3-7-9-6-16-5h-2l-1-4h-3v4q4 2 7 3l6 3q-7 7-15 8 5 3 6 6l-3 9q-7-4-9 5-9-5-18 0l3 2c6 5 6 5 5 13q-3-1-2-2-1-5-5-6-4-5-9 0l-6 1c-2 3-15 7-17 5q-2-2-3-5l3-2q3 1 5 3l1-5q-4-4-1-9v-5q-5 6-8 2l-10-1 3-3q4-2-2-4h-1l-7-4 6-2 1-3 2 1c-1 7 6 4 7 7l4-1 1 4 8 3-1-11-4 2-5-2c2-4 9-3 9-9l-12 2-6 1-8 1v-2l-10 10q-5 3-6-5-3 8-7 2-2-3-5 1 6 3 9 10h-4q-6 8-14 3l-1-2c-4 3-9 1-13 5l-11 15-4-11c-4 7-7 13 1 19l2-4 3-4-1 9-2 2-14 2q7-2 5-8l-2-17 3-2-5-4h6v-4l2-1h-2c-4-1-9-3-11 3q-3 3-8 1-7-3-8 5l-5 1 1 6 4-2 1 3 1 8c-4 1-8 5-12 1l-5 1-5-4q8-1 5-9h8v-1l-6-4-2 4c-6-2-8 4-12 6l-2-5-7 3-1-2 9-9-6-2-1-1-3-3q-3 1-4 3l-3 3 1-9h1l1 1v-4l8 2 4-1 4-1c8 2 8 2 4 9v4l5-5v-7h1l7 9 2-1-3-5 6 1q-1-6-7-6-6 1-4-5 3-5-3-5-1 6-7 4-4-3-1-8c-1-4-3-9 3-11l2-4 6-2-1 8 1 1 6-8q5 2 5-4l1-2h5l7 8 5 2-4-10-1 1v3l-3-2 4-7 3 6h1q0-9 8-5l1-5 4 1c-3-4-9-5-5-11l4 1q5-9 15-1l-5-1c1 5 6 4 9 7-6 0-5 6-8 10l2 4 3-4 4 4 6 6c0 6 3 5 6 6l-1-8q-6-4-7-12 6-1 5-7-1-4 1-9h1l2 5q0 10 9 5 2 6 6 4l-8 17 6 2 3 1v3l-4 3 1 2 7 1 7 13 2-1-5-10c4-4 4-12 13-12l-6-7-1-2q-3-7-9-3l-6-7q3-6-1-9l6 1h7v9q8-6 15-1l-3 6 8 2c-2-10-2-10 1-12 0 3-3 6 3 8v-4l7 4 6 2-1 1 1-1 10 2 1-5q5 0 8 5l-5 1q5 4 11 1c9 2 7-4 6-8l2-7-2-5q-2-5 4-8l2 5q1 8 7 3l5-1 3-3 4 4-3 2q-4-1-7 2l-3 7 2 4q3-7 9-3h2l1-3q-1-4 2-6l1-3 3-2 2 3v4l-3 1-1-1 1 1 1 1v6h5l2 7 7-11v-3c3-1 5-3 6 3l6 3 1 1-1-1q1-5 3-9 4-3 9-4l4-3-4-2-4-2 2-5-1-5 7 1-2 5q3-1 5-1c2 3 5 0 7 0h1l-3 7q-7 0-6 5l3 11-4 4 1 1 9-2 3 2 4-8q2-4-2-3t-8 3v-6q-2-4 0-7 6 2 10 6l3-8-1-2v-3l5 6-5 7q-1 4 1 9l5-2 4-3q5 1 3-3v-5l2-1 3 6 2 4c2 2 18 1 19-1l7 5-5 2-3 2 3 2c3 1 7-1 9 3l6-2-5-3q0-8 5-3h4l5-2 6-9 7 1-3 7h5q-3 6 6 8l-2-11-1-2c4-7-2-7-6-8l2-3v-9l2-1 3 4 5 3 6-13 2-2 8 7v4l-11-2 3 10-6 1q-2 1-5 3l5 3h3c-3 3 1 7-3 10l2 4 5 3q0-8 8-8l7-2q4-1 6-1l7 8 2 4 2-6 4 12-1 1 1-1 2 1 4 2 2-3v-6l-6 1 4-5q-3-4 3-9l3-5q4 3 8-2l6 2-3 3-3 3 4 2c4-1 5-8 3-10l-1-1-1-2 16-2-2 7-6 1-2 6q-5 7 1 14v-4q-2-4 3-6l9-7q4-4 11-2l5 4 7 9 2-1-1-5 16-1-2 14-5 3v-2h-6l-4-1-10 1-2 7v5l-3-4-5 5-3 6-5 5 13-1c3 7-5 9-5 14-8-1-8-1-8 5l-1 5-6-3 2 5-1 1-17 1-1-1-2 4q-7-1-6-6l2 2h2v-5l-2-4q-2-1-5 1-5 9-11 1c-5 6-13 4-16-4q-3-6-7-1l-5 1-4 2q-3-5-8 1l-6 7-5 1-6 2q3 5 8 4 5 0 4 6l-1 1 1-1 3 2q3 4 4-1l6-2v1l-7 11-1-4-6-1v4c-3-1-5-4-7 1q6 0 3 5zm-284-69c-3 2 1 4 1 6v-6h1zm11 9q-2 2-1 4l4 2v-7l3-4-2-2-4 3zm-4 16 2 1 1-3-2-2-1 1q-3-5-8-1c3 4 3 4 8 4m101-17-3-3-2-1h-7l-1 1 5 10-10 3 4 3 15-7q5 1 2 5-5-2-6 2-2 7-9 5l-5-1-1 1 7 4q7 0 13-4l10-2q8 0 9-7l-2-1-2-1 1 5-8-2q-1-5-9-7zm20-14c-4-4-7-7-10-1q6 0 8 5l4-2zm-1 12-5-1-4 2 5 7 4-5 2 1 1-1zm161 1 2 1 1-1-3-2q0-3-4-2l-4 4-1 4q-2 4 3 6l3 1 7 1 3-1q-6-7-13-3-1-4 3-4zm70 13 1-5-10-5c-1 4-7 4-4 9l3-1v-1q5-3 6 6l4-1q2 4 7 1zm-385-15-2 1 3 2v1l3 1v-3l4-1 5 3v-1l-4-5q1-6-5-10l-3 5-2-5-4 4 2 2q5 1 3 6m262-25zl4 5 9-6-1-1h-3l-2-8-7 5-4 1q-6 3-10-2-2-3-5-1l-9 7h-7l2 6-1 1c-4 3 0 4 1 6l2 1q0-4 3-7l5-1 5 10 3 4 2-1q-3-6 4-7l1-2q-5 0-10-2c-4-3 1-7 1-9zm27 61 2-9c-5-2-5-2-2-9q4 4 4 6c0 6 4 4 8 5v-8h-5l-2-7-12 1 2 14 2 2c-4 4 1 5 2 7zm-42-34h3q6-2 10-6 3 3 5 3l4-5 2 7h1l1-10q-3-2-8-1zm-259 10 5 6 4 1-1-5-4-2v-4l5 1 1-4-4-2q-3-3-7-1l-5 5zm310 41q2-6-1-12l-12 6 4 4-3 5h1l5-3c-1-3-4-6 1-7zm-3-46 3 3 2-4-4-12q-10 4-1 13m-173-13h5q6-1 5-6l-3-6-4 4q-5 2-3 8m299-19q-4 7 4 6l-1-10q-1-7-7-3l-3 2 3 2zm-403 33-5-3 2 8q-5-7-8 0l15 4zm77-29 6 8 6-9zm-42 39 1-3-10-3q3 10 9 6m250 1q4 1 3-3c-1-4-7-4-10-2l5 1-2 3zm-183 13 5 1-3-4-9-2-1 2zm191-60 3-1-1-3-2-2-3-1-1 3zm64 25q-4-3-4 1l1 7q7-3 3-8m-324-22 6-1-6-6-2 2zm48 20q0-5-6-5l1 5 4 2zm207 59q8-9-1-10zm-94-91v5h2l2-4-1-4zm-163 35 5 1-1-4-4-1zm83 34v-5q-9 1-2 8 2 0 2-3m148-22q9-4 2-8zm-218-8 5 1-3-4-8 4v1zm236 32 3 1-3-4-2 1zm-52 12-2-3h-1l-1 5zm66-27 1-2-3-1v1zm-139-24v-2l-2 1zm-32 9-1 1zm168 23v-1h-1zm58-15v-1zm-161-11 1 1v-1zm52 36zm-98-26 1-1v-1zm48-47 1-1v-1zm-169 50zh1zm122-12zm87 51zm45-22zm-202-17q-1 1 0 0m-72-11q1 0 0 0m238 24q1 0 0 0m45-21q-1 0 0 0m-79-20q0-1 0 0"/><path fill="#f4b93a" d="m613 571 4 1 2 2-17 3-1-1c1-5-3-3-5-4h-5v-1l-1-5-10 1-2-2-2-2-2-4 3-2v-4l-7-1q2-8 9-12 8-1 10 5 0 6 4 6l11 15 2-4h3l3 3v3zm-31-22 3 1 2-7q-5 1-5 6m8 5q-1 0 0 0"/><path fill="#f3b638" d="M685 659h-7l-4-3h1c3-2 4-8 10-5q0-5-5-5l-1-1c-3-1-4-12-2-14l2-6 4-2 1-1-1 1c-6-2-1-6-3-9l17 12c-8 2-1 6-3 9l-7 1 7 11q-7-2-6 6-7-2-3 6m1-18v-2l-2 2z"/><path fill="#141b24" d="m310 744-5 15-3-9q-4-3-7 1l-9 9q-3-6-8 0l-4 2-2-2 3-5c7-1 6-5 7-10l6-2-2 7 18-8q6 4 7-4l2 6zM397 734v-8c4 1 2 8 8 6 5-3-1-6 0-10l2 3 6 5q8 5 10 15c-4-4-7-11-15-7l-3-3q-2-2-4 0-4 5-4-1"/><path fill="#f3b739" d="M170 602c-1-5-4-3-7-2l-2-9q7-3 7 4l8-7 4-1 1 5-3 8c-1 2-6-5-5 3h-2zm5-7-2-2-1 1z"/><path fill="#141b24" d="M350 758c0-7 0-7-8-7l1-3 1-2c6 1 12 3 17-2h4l-9 6-1 11z"/><path fill="#f8c03f" d="m450 560-6 2 2-7 8-1 6-1 12-2c0 6-7 5-9 9h-5l-7-3z"/><path fill="#f6bd3d" d="M306 566zl-2-5h-5l2-7 3 4 8-6 3 2 1 6-5 1c-2 0-4-2-3 2z"/><path fill="#f8c03f" d="M558 547q1 7-7 6h-1c2-5 2-5-4-11l8-3c1 2 5 3 3 6h-3z"/><path fill="#f4b93a" d="M149 607q2-4-4-6l1-2v-1h7q5 1 5 8l-2 2z"/><path fill="#f7bc3e" d="m139 620 9-4-5 11h-2z"/><path fill="#f3b739" d="m632 592-1-4 7-5 3 10h-1c-1-2-3-6-6-1z"/><path fill="#041226" d="M195 711q-6-1-5 6l-6-4q3-9 11-2"/><path fill="#f3b739" d="m334 582 2-4 6 4v1z"/><path fill="#2c2820" d="m599 727-2-1a2164 2164 0 0 0 2 1M297 761l-5 6-2-4 5-4 2-1zM403 763h8v1l-11 2zM392 731c-3 4-3-1-5-1l-1-5h1z"/><path fill="#f8c03f" d="M451 566zl2 4-3 3-5-5z"/><path fill="#f3b739" d="M611 599c-7-2-2-7-3-10h1l1 5 1 4z"/><path fill="#f3b638" d="m674 649-1-3q4-1 2 3z"/><path fill="#f8bb3b" d="M633 632q-2 5-5 0z"/><path fill="#f6bd3d" d="M288 559h5v1z"/><path fill="#f6bc3d" d="M634 598v5h-1zM465 586l-2-1v-1z"/><path fill="#f6bd3d" d="M234 593v2h-2z"/><path fill="#f3b739" d="M376 569h2l-2 1z"/><path fill="#f6bd3d" d="m236 583 1 2h-1z"/><path fill="#f3b638" d="m670 655-2-3z"/><path fill="#f8bb3b" d="M627 626v1zM662 646l-1 1z"/><path fill="#f7bc3e" d="m156 608 2-2z"/><path fill="#f6bc3d" d="M437 566"/><path fill="#f7bc3e" d="M171 603h2z"/><path fill="#f6bc3d" d="m618 601 1-1z"/><path fill="#f8bb3b" d="m662 646 1-1zM648 633l1 1z"/><path fill="#f6bc3d" d="m609 619-1 1z"/><path fill="#f7bc3e" d="m131 618 1 1z"/><path fill="#f6bd3d" d="M237 588"/><path fill="#f6bc3d" d="M370 594"/><path fill="#f6bd3d" d="M217 594"/><path fill="#f6bc3d" d="M327 562z"/><path fill="#041226" d="m443 755-1 1zM441 718z"/><path fill="#f6bd3d" d="M320 553q0 1 0 0"/><path fill="#041226" d="M1365 324v4l-9 2q-5 1-5 7 3 8 8 15l3 3q3 7-3 13l-5 4c-5-8-7-8-15-4l-8 1-3-1-1-2c2-8-4-13-8-19l-2-1-2 1 4 10q4 9 1 18v1l-2 2-2 4q-5 9-12 17c-4 5-5 13-13 15l-19 2q-10-1-9 8l-1 6-1 9-20 17-1 1-6 3q-5 3-8-3c-7 7-12 0-18-3-8-3-14-12-25-10q-5 0-12-4l2 5q4 4-1 5-8 3-14-1l-2-1-1 1c-6-12-13-2-20-2l3-3 2-4h-5q4-11 15-11l1 1q6 7 10-2l6 2 6-8q6-6 13-12l5-8 3-5 6-6 12-5c5-2 11-1 15-6h7l5 1c7-1 6-1 6-8q-1-3 1-5l7-6q2 11 12 14l5 4q3 5 6 3v-8l-14-27q-2-3 1-4l7-6 18 1 9 2c4 1 9 3 12-2q2-4 1-6-3-4 0-7l1-1 3-6-7 1h-3l-16-5 12-18 7-2 7 1 6-1v-6l-3-2-1-5q3-2 5-1l8 2c-3 6-3 15-11 16l-7-1-3 3 2 3c5 4 10 6 8 14l2 2c6 3 11 9 18 10q10 0 10-9c5-2 5 7 11 4h1zm-120 78 13 7 2-1v-3l-4-13-3-4-12-1z"/><path fill="#f6c442" d="M1150 428q-11 1-15 12l-8-1-5-2 1-4 1-1-7-5-9-6 4-2 3-3-4-2h-6q-5 1-10 3c-4 3-7 7-12 0l-1 3 5 3q4 2 3 7-1 2 2 6 3 5-1 8l-2 5 13 5-5 8-9 4v-5h-2l-1 7-1 1-3-7-2 5c-3-7-2-17-14-15 0-3-6-6 0-10l2 3c1-2 1-2-4-8l5-2-2-3c8-12 8-12 7-14l4-2c0-4-11-11 2-12l2-6c7 3 6 10 9 15l2-6 3-4 5-5 2-5 4 3 2 1 2-4 9-1 2 5-5 2q-2 5 0 9l11 9 12 4q5 1 11 7m-74 24h3v-1zl-2-1-1 1zm10-11 4 1v-1l-2-3-4 3v2h1zm-7 1 2-5-8 4v1zm-9-6"/><path fill="#f8c03f" d="M815 514h-2q1-4 7-4c-10-3-7-12-10-17l10-18-6-4 4-2 9 7-7 5 5 6 13-10v14l11 3q8 2 5 10-1 6-6 8v4h3c4-3 4-3 9-3v2l2 3 2-3q-2-5 4-4l2 6-3 5q9 0 6-5v-4l7 5 10 7 2 7 1 1q-3 2-5 1l-2-6h-3v7l-3 5-1-9-7 2h-4l-3 1c-3-5-6-2-8 0l-7 3-1-2 6-2-3-8v-1h1l4-1v-2h-5l-2 1h-3l-2-2-2-2v2c0 2 4 5-1 7h-2l-3-1 1 2c0 5 2 11-6 12q3-7-4-6l-3-4-3-3v-2l1-1 6 2c0-6-6-5-9-6-1-3 0-7-5-6m29-14 1-1zl-1 1zm-7 13zl4 1v-2zm33 13-2 1 4 1 5-4 1-1-1-1-2 2zm-35-29h3l-1-3-4-3-5-1-1 8 5 1-1-4zm-13 6-2-1v3zm26 4-1-2-1 2zm-14 25zm-18-29v-1zm9-3zm18 4q0 1 0 0M939 497l-7-1q-3 4 0 9 4 2 9 3c-4 3 2 9-4 12v5l-1 3q-5-1-4-5l4-7-4-5c-1-7-6-4-9-4l1-4q-11 1-6 7l5-3q2 7 9 6l-4 2q-6 0-7 5l-7 4q-4 0-8 2-5 3-9-1l-1-4h-1l-1 4h-2q1-14 13-8v1q-7-1-4 5l4-3c5 2 7-2 10-4l3-2-3-2-3-6 6-11-7 1 3-6q-7-1-7 6l-2 3-4-1-2-4 6-1-3-2v-1l3-3 6 1-4-7 1-2q8 0 11-6l1 8-4 5c5 3 10 4 10 11h1l4-9q12-2 19 7l-2 5h3l1-4-1-1q3-3-1-5l-2-5 5-1h4v-6l-1-2 2-1 4 4c2 3 2 8 7 6q-3 7 3 10l1 3c-8 5-8 5-10-3l-4 11-4-4q-5 3-3 8 1 9-7 8l-2-2 7-8c-4-3-9-4-10-11l3-2v-2h-7zm-16-5q0 1 0 0"/><path fill="#071527" d="M1245 475h2l5 1q10 5 18 3c4 4 1 12 11 13l-6 3-21 7-9 5-4 1-4-6-5 5q-7-5 0-13 5-6 3-13-2-3-6-4l1-2h15"/><path fill="#0a1728" d="m1203 499-5 2 3 3 11 5 4-2-2-2-2-2 1-2 13 4 1 3c-4 2-4 8-10 7q-6-1-8 5-3 7-11 4-3-2-5 1l-1 2-13 3-9 2-2-9q7 0 5-6 0-4 5-4l12 2v-3q-2-6 3-12l5-8c3 1 8 1 5 7"/><path fill="#f5bc3c" d="M902 490zh-6q-2 2-2 6h1l4-3 2 4 4 1 2-3q0-7 7-6l-3 6 7-1-8 12-2-5-1 7-2 8q-12-6-13 8h-2l-10-7-2-9-5 4v4h-3l-2-6 12-6 1 1 4 1v-4l-3-7 2-1 3 4 4 16q6-3 2-9-2-2-1-4 1-8-5-5 1-5 4-11 4-5-6-6 6-5 8 1 4 5 7 0c2-4 4-1 7 0l4 7-6-1z"/><path fill="#f8c03f" d="M1016 506v2l-7-1-1 6-10-2-3 3 1 2-3 5-3-3-1-4h1l2-1-3-1-1-3h5l4-2-1-3-4-5 6-1-4-4v1h-7l-4 1v-3c8 0 8 0 9-8q1-3 5-5 0 8 8 12l2 2 1-1-3-1 1-4 10-4 3 6-1 2-3-5-2 9v6zm-7-6-1-1zm-7 8zh1zm-1-6q0-1 0 0"/><path fill="#f8c03f" d="m1041 522-4 4-10-2-1 1-4 2-2-3q1-2 4-5l-3-4-2-6q0-3-3-5v-1l4-4 2 4v4q-1 5 4 4h3l4 4c0 6 5 4 8 5zM587 494c-2 0-5 3-7 0q-2 0-5 1l2-5 8-2 8-4 4 4-1 1-3-1-1 2 5 4v3l1 2-3 8q-4-4-10-6l3-7 1-2h-1zM674 501c4 1 10 1 6 8l1 2 2 11q-9-2-6-8h-5l3-7-8-2 4-3z"/><path fill="#f2bc3e" d="M1240 457zl11 15-19 1z"/><path fill="#f8c03f" d="M1056 544zq4-7 12-9c0-1-5-3 0-5l9 13c-5 5-9 1-13-1v1zm13-5"/><path fill="#141b24" d="m742 406-24-10c5-5 8 2 13 0v-4c8 2 8 9 11 14"/><path fill="#f5bc3c" d="m931 488-4 9h-1c0-7-5-8-10-11l4-5 5 1 1 4-1 5zM1026 511q-5 1-4-4v-4l-2-4-4 4-3-1v-6h12zM1050 509l3-3c4 2-3 7 4 8l-10 9v-11l1 2zM919 473q-3 6-11 6l7-9 2-4 2-3 2 3z"/><path fill="#f8c03f" d="M887 497q6-3 5 5-1 2 1 4 4 6-2 9l-4-16z"/><path fill="#f6bc3d" d="m563 478-2-4 5-4v3l4 4v3l-4 6q-4-2-3-7l2 1 2 2-1-3z"/><path fill="#f5bc3c" d="M1041 520c-3-1-8 1-8-5l-4-4h11zM1033 494l5 4h-2l-6 6-2-7q0-1 5-3"/><path fill="#f6c442" d="M1057 441h-7l-1 2-1-4 4-2 7 1 2 3z"/><path fill="#2c2820" d="m776 400-2 3-7-2c2-7 8-1 11-3zM664 454l-3-7q5-1 6 3l1 10z"/><path fill="#f5bc3c" d="m1051 495 4 2v5l-3-2-3-4z"/><path fill="#f6bc3d" d="m671 502-4 3-4-3 5-3z"/><path fill="#f5bc3c" d="m1050 509-9 2 2-4q4-3 7 2"/><path fill="#2c2820" d="m1134 541 8 1q-8 6-8-1"/><path fill="#f5bc3c" d="m951 495 1 1-1 4h-3l2-5z"/><path fill="#f6bc3d" d="m668 499 2-7 3 7z"/><path fill="#f5bc3c" d="m879 500-2 1v-4h1z"/><path fill="#f6bc3d" d="M786 508c3-5 4 0 6 1z"/><path fill="#f6c442" d="M1135 440h5l-2 3z"/><path fill="#f5bc3c" d="m1018 492 1-2 2-1 1 1z"/><path fill="#f6c442" d="M1129 395h-2l2-2zM1056 430l1-2zM1151 398l1-1 1 1zM1093 394v1l-1-1z"/><path fill="#f6bc3d" d="m622 509 1 1h-1z"/><path fill="#f6c442" d="M1064 427"/><path fill="#f6bc3d" d="M570 471"/><path fill="#f6c442" d="M1136 398"/><path fill="#f2bc3e" d="m1252 476-4-1z"/><path fill="#f5bc3c" d="M899 476"/><path fill="#f2bc3e" d="m1232 474-2 1z"/><path fill="#f6bc3d" d="M766 513"/><path fill="#141b24" d="M742 406z"/><path fill="#f5bc3c" d="M874 499q0-1 0 0"/><path fill="#f2bc3e" d="M1245 475z"/><path fill="#f4b93a" d="M345 528q0 6-5 4l-6 8-1-1 1-8-6 2h-3c-2-6 3-8 7-11l2 2 2 2h7zm-12 0"/><path fill="#f8c03f" d="M399 519q1 8 7 12l1 8c-3-1-6 0-6-6l-6-6-4-5 3-4 2-3zM372 517l-1 5q-8-4-8 5h-1l-3-6h1l3-2z"/><path fill="#f6bc3d" d="M343 526h-7l-2-2-2-2q7-7 10 2h1z"/><path fill="#f8c03f" d="M422 508q4 3 1 9-4 2-6-4z"/><path fill="#f6bc3d" d="m443 505-7 4 6-9z"/><path fill="#f8c03f" d="M358 530v-3l1-1 4 10-5-2zM389 524l-1 3-2-4z"/><path fill="#f6bc3d" d="m363 519-3 2z"/><path fill="#f4b93a" d="M343 524zl1-1z"/><path fill="#041226" d="M451 485"/><path fill="#f5ba3b" d="M770 571c0-6 0-6 8-5 0-5 8-7 5-14q6-1 7 4 1 7 7 10l5-9 2 1c-2 5 3 5 4 8v3c1 8 0 9-9 11l1-5-1-1-3 4 6 5 13 2-9 5 1 3 3-4q1 8-8 10l6 2-6 5-2-4v1l-7-4-7-1-6 1q3 6 8 3 3-3 4 1l3 4-3 4q-3 0-6-3l-3 6-6-2-5 7c-3-6 3-8 3-12h1l2-1-2-1-2-4v-2q1-6 1-11-1-4-5-7c-2-3 6-6 0-10m6 10 6-1-7-5c0 2-6 4 1 6m20 13-2 1zm-14-3 2-1-1-1zm5-36-1 1 1 1zm-9 37"/><path fill="#f8c03f" d="m775 548 3-6 5-5 3 4v-5l2-7 10-1 4 1h6v2l5-3 1 1 2 4q-3 9-12 11h-1l-4-4-1 2 4 2q-8 3-8-5 9 0 3-7l-2-2-1 4v5l-6-3 1 6-2 1h-2l-7 4z"/><path fill="#f6bc3d" d="M794 539q0 8 8 5h2l-1 6 3 3-4 4-5 9q-6-3-7-10-1-5-7-4l4-5q4-2 2-5l-1-6z"/><path fill="#f8c03f" d="M943 541h-9l-1 5-3-4-3 4-9-7 13-5c-4-1-4-7-9-5l-3-4 4 1 5-5q0 10 8 10v1l2 1 8 8z"/><path fill="#f6bc3d" d="M808 566c-1-3-6-3-4-8l4-3v-7c3-2 6-6 12-2l-8 4 1 3q3 6 8 2 2-2 6-3c-1 6-7 6-10 10l-2 3c-3-2-6-5-7 1"/><path fill="#f8c03f" d="m856 549-8 4-4-10v-2h3l5 3 11-7c0 1 4 3 3 4q-1 4-5 7l3 2c-4 4-6 1-8-1h2l-1-1z"/><path fill="#f7c13f" d="M814 529zl2-14c5-1 4 3 5 6l3 4-1 1h-5z"/><path fill="#f5bc3c" d="M981 566v5c-7-2-2-8-4-11l5-3 2 2zM968 567l-4-6h8v11h-1zM990 563l4 2-3 2-2 6-3-3-3-4z"/><path fill="#f8c03f" d="M918 534h-2c-2 0-5 3-5-2l6-3q4 1 1 5"/><path fill="#f5bc3c" d="M932 513q-7 1-9-6c3 0 8-3 9 4z"/><path fill="#f3b638" d="m849 584-6-6 12 4zM839 575l-1 8q-2-2-3-5z"/><path fill="#f7c13f" d="M868 533h4l-2 5zM847 522h3l2 2v1c-2 0-5 2-5-3"/><path fill="#f5bc3c" d="m894 525 1-4h1l1 4zM963 582l-4-1 1-2z"/><path fill="#f5ba3b" d="m814 571-3-2 3-1z"/><path fill="#f8c03f" d="m842 555 1-2 1 1z"/><path fill="#f7c13f" d="m822 527 3 3zM838 528l-1-2 3 1z"/><path fill="#f5bc3c" d="m968 558-1-2h1z"/><path fill="#f7c13f" d="M840 527h2v3zM843 520v-2l2 2z"/><path fill="#f5bc3c" d="M964 569zv1z"/><path fill="#f8c03f" d="M904 531zh-1z"/><path fill="#f3b638" d="M839 587"/><path fill="#f7c13f" d="M874 537"/><path fill="#f5bc3c" d="m941 573-1 1z"/><path fill="#f3b638" d="M821 568"/><path fill="#f6c442" d="m1316 382 2-4 2-2v-1l8-6 3 1c1 7 1 8 8 6 6-2 7 3 10 5l-3 8-3 3q0 4-5 4-4 1-8 5-15-3-14-19"/><path fill="#141b24" d="m1344 464-2 1-1-1-1-2v-7l5-1q6-5 12 2l-8 4z"/><path fill="#f6c442" d="m1342 400-1 6-3-4zM1328 409l1 3h-2zM1331 406z"/><path fill="#f7c13f" d="m983 496 4-1h7v-1l4 4-6 1 4 5 1 3-4 2h-5l-6 2-4 2-5 3q-7-2-10 4l1-13c8 7 11-3 17-4l-6-6 1-2zm-2 10q0 1 0 0"/><path fill="#f8c03f" d="m959 532-5 8-3-4 3-2-3-10 9 2zM988 522l-2 1-10 3-1-4q0-5 5-4zm-9-1-1-1h-1zM944 529v-6c6 3 6 3 3 11q-6 1-3-5"/><path fill="#f4b93a" d="m948 548 2 2-4 2-1-1z"/><path fill="#f7c13f" d="m943 495-3 2h-1l-3-4h7zM1013 502l3 1v3z"/><path fill="#f8c03f" d="m1002 517-1-1h2z"/><path fill="#f4b93a" d="M943 541h3zM936 528l1-3z"/><path fill="#f7c13f" d="M990 514zv-2l3 1z"/><path fill="#f4b93a" d="m938 533-2-1z"/><path fill="#f5ba3b" d="m756 585 3-2 11 2 3 2c-2 4-10 2-6 9l-4 5-6-9-2 1 3 8c-5 7-12 5-19 3v-2h10l-4-3v-9l7 5v-10z"/><path fill="#f8bb3b" d="M716 596q-4-1-7 3-5 5-13 8l1-6q3-4 0-9l1-3 5-8 4 5q4-2 6-2 4 4 6 9zm-7-3h5v-2h-14l2 6z"/><path fill="#f5ba3b" d="M812 614c5-3 2-7 1-11l1-1q8-1 10-10l4-5 4 5q-8 6-11 14 0 3 3 5c5 2 2 4-1 7q-4-6-11-2zM720 600q9-7 13-17h-1l-5-2 1-2 7 2v4q-4 6-2 11l-13 9q-4-1 0-5"/><path fill="#f8bb3b" d="M814 602zl-1 4q-1 6-6 6t-4-7l6-5 2-4zM715 624h-8c1-6 7-6 12-8v1z"/><path fill="#f5ba3b" d="m735 592 2-2 3-3 1 5-1 5q-5 1-5-5"/><path fill="#f6bc3d" d="M774 599v2l2 4v2l-4-2-1-1 1 1-1 3-2 1-2-6q2-3 7-4"/><path fill="#f5ba3b" d="M719 617zl9-5v8h-4l-3-1zM817 588l-1-6 6 2-4 8h-1z"/><path fill="#f6bc3d" d="m736 613 9-5q-2 5-9 5M686 592l-4-3q6-2 4 3"/><path fill="#f5ba3b" d="M812 580v-2l2 2zM729 606l2-1-1 2zM767 621v-2q4-2 3 3h-2z"/><path fill="#f6bc3d" d="m678 601 3 3h-2z"/><path fill="#f4b93a" d="M842 608h-2v-1z"/><path fill="#f8bb3b" d="M812 614v2l-2-1z"/><path fill="#f1b639" d="m830 617-1 1z"/><path fill="#f6bc3d" d="M736 615zl1-2z"/><path fill="#f5ba3b" d="M824 608"/><path fill="#f8bb3b" d="M689 601z"/><path fill="#f6bc3d" d="M702 570q-1 0 0 0"/><path fill="#f4b93a" d="M218 570v3l-6-5q4-5 6 2M260 560l-1-6 6 6v1z"/><path fill="#f3b739" d="M205 564v-4l6 2c0 4-3 1-6 2M249 561l-1 3-1-1z"/><path fill="#f4b738" d="M214 574v2l-1-1zM272 556h-2l1-1zM247 575l1-1 1 1zM210 574z"/><path fill="#f3b739" d="M246 561q-1 0 0 0"/><path fill="#f7c13f" d="M512 499q4-5-3-7l-7-5c-4-2 0-4 1-7q0-4 4-2l2 5-3 1-2 2 3 1 4 1q4-1 6 4l3 7q-2 4-8 2zM532 507l-1 3q-3 2-2 6l-1 3h-2q-6-4-9 3l-2-4 3-7q3-3 7-2l3-2z"/><path fill="#f6bc3d" d="m469 517-2-3 5-9 4-3 2 11q-1 10-9 4M558 507c-5-4-5-4-9-1 1-4-6-7 0-12l1 3q0 5 5 3l9-1-4 9z"/><path fill="#f7c13f" d="M520 484q-9 1-8-6 0-5 4-4l2-1h5l-2 4z"/><path fill="#f4b93a" d="M469 517q8 6 9-4l2 1 2 2 1 4-1 5-10-2-6-2z"/><path fill="#f6bc3d" d="M557 493v-6l4-1v5l4 2q-2 5-8 4zM485 501l11-8 2 9-6-4-5 7z"/><path fill="#f7c13f" d="m505 471-9 6 1 2 1-7z"/><path fill="#f6bc3d" d="m482 516-2-2 1-4 1-3h3v3z"/><path fill="#f7c13f" d="m514 471-3 1-3-3 3-2 8 2zM537 508l-2-3 2-4 5-2zM544 511l-3-4 1-2 3 3zM549 513v3h-6q-3-1 0-3z"/><path fill="#f6bc3d" d="m548 488 1 3-2 1-2-5zM540 487l-1-2h2z"/><path fill="#f7c13f" d="M535 514zl3-1 2 4h-1zM507 478l1-3h2zM540 520h-5zM464 499l2-1v1zM524 503l-3 3z"/><path fill="#f6bc3d" d="m544 511 1-3 1 2zM482 498h-1l1-1zM501 514v-1h1z"/><path fill="#f7c13f" d="m472 505-1 2h-1l-1-1z"/><path fill="#f6bc3d" d="m496 490-1-1h1z"/><path fill="#f7c13f" d="m563 478 3 1-1 1-2-1z"/><path fill="#f6bc3d" d="M542 491v-1z"/><path fill="#f7c13f" d="M534 494h1z"/><path fill="#f6bc3d" d="m505 494 1 1-1 1z"/><path fill="#f7c13f" d="M449 510"/><path fill="#f6bc3d" d="M543 516h2zM512 499v2zM469 506z"/><path fill="#efbe47" d="M1360 325z"/><path fill="#f3b739" d="m171 588-1-5-2-2 2-1 4 1v4z"/><path fill="#f4b738" d="m146 599-1 2q-7 5-6-4zM136 594q0-1 0 0"/><path fill="#f7c13f" d="m1314 469-3-1 2-2zM1340 460v2zM1341 464l1 1zM1340 456z"/><path fill="#f3b638" d="m668 618 5 1q-5 4-1 10 3 5-3 10c-3-4 0-10-6-11l1-2h-3v-8h3l2 3zM660 611l5-4 2 6c-4 5-4-1-7-2M711 628l4 3c-3 1-7-2-8 4l-3-6-1-1 3-1zM685 659l4 4-4 2-1-1z"/><path fill="#f6bc3d" d="m668 618-2 3-2-3z"/><path fill="#f3b638" d="M701 632v3l-2-1zM697 630q0-1 0 0M730 623l2-4c6 1 5 7 6 11l-2 2-4 4-2 3-2-3-2-5c8 0 3-5 4-8"/><path fill="#f8bb3b" d="M730 623c-1 3 4 8-4 8v-2l-1-4-7 4-1-1q4-4 4-10l3 1zm-3 2q0-1 0 0"/><path fill="#f3b638" d="M721 618q0 6-4 10l-2-4 4-7zM718 629l7-4 1 4-4 1zM729 623l-5-4h4z"/><path fill="#f8bb3b" d="m711 628-5-1z"/><path fill="#f3b638" d="m764 633-2-2h1zM767 621zh-1zM721 636q0-1 0 0M718 637q1 0 0 0"/><path fill="#efbe47" d="M1359 352q-5-7-8-15 0-6 5-7-3 5 1 9 5 6 2 13"/><path fill="#f8c03f" d="M588 532zl-2-6h7l9-7q3-2 5 1 4 5 10 2l4-1 7-5 2 8h3l1 1-9 6-4-6h-17c0 2-5 6-1 9q5 2 10 2l-1 2q-7 1-4 7l-2 1-3-4-5-10-6 1zm38-10-2 2 2 1zm-27 4q0 1 0 0"/><path fill="#f4b93a" d="m439 529 6 7c-9 0-9 8-13 12l5 10-2 1-7-13-7-1-1-2 4-3v-3l-3-1q1-5 6-8l2-4q6-4 9 3l-6-2 1 6zm-11 9 2 3q5 0 5-7z"/><path fill="#f3b739" d="m648 586-1 1c-1-2-6-3-2-7l-2-2-2-14 12-1 2 7h5v8c-4-1-8 1-8-5q0-2-4-6c-3 7-3 7 2 9zM514 561q0 7-8 7l-10 2q-6 3-13 4l-7-4 1-1 5 1q7 2 9-5 1-4 7-2l3 3v-2l-3-1q2-4-3-6v-1q8 1 9 6l8 2-1-5z"/><path fill="#f8c03f" d="M585 501q-2 3 0 7v6q4-2 8-3t2 3l-4 8-3-2-9 2-1-1 4-4-3-11q-1-6 6-5M606 550l18-11q5-1 8 1l-1 10h-1l-2-7-4 5q-2 0-5-3-4 4-10 6-2 1-3-1"/><path fill="#f3b739" d="m346 560-5-4 5-5q3-2 7 1l4 2-1 4-5-1v4l4 2 1 5-4-1z"/><path fill="#f8c03f" d="m429 524-2 4q-5 3-6 8l-6-2 8-17z"/><path fill="#f3b739" d="m453 558 5 2h5l5 2 4-2 1 11-8-3-1-4-4 1c-1-3-8 0-7-7"/><path fill="#f8c03f" d="m366 550-3 2h-3v-3q1-5-4-6l-2-2 4-4 2 5 3-5q6 4 5 11zm-3-3"/><path fill="#f4b738" d="m656 602-4-7c-5 1-2 4-1 7l-5 3h-1l3-5-4-4 12-6q3 6 0 12M653 556q-8-9 2-13l4 12-2 4zm1-4z"/><path fill="#f4b93a" d="m621 573 5-8 7 6q-3 4-7 6l-5-3z"/><path fill="#f3b638" d="m744 565-4 2q-1-9-6-5l-3 1c-3-5 3-5 4-9l10 5z"/><path fill="#f8c03f" d="M480 543q-1-6 4-8l4-4 3 6q0 4-5 6z"/><path fill="#f5ba3b" d="M789 542q2 3-2 5l-4 5-13 1 5-5 3-1 7-4h2z"/><path fill="#f8c03f" d="m780 523-4-2-3-2 3-2q6-4 7 3l1 10q-8 1-4-7"/><path fill="#f3b739" d="m377 557 4 9-15-4q2-7 8 0l-2-8zM601 576zl3 3v2q0 4-4 3-3 0-5 2-8-6 1-8zM557 545c2-3-2-4-3-6 6-4 11 0 17 1q-5 7-10 1l-4 6zM674 550l-3 5c-2 1-5 0-3 5q-5-1-3-5l1-4 4-4q4-1 4 3"/><path fill="#f4b93a" d="m486 558-5-9 1-1 7 1v3l1 6z"/><path fill="#f8c03f" d="M454 527h12l-6 9z"/><path fill="#f3b739" d="M591 571zl1 7-6-4-2 4q-3-4 0-9zM512 553l-3 5-5-7 4-2 5 2zM486 558h4l3 1-13 6-4-3zM412 568q-6 3-9-7l10 3zM661 568l-3-1 2-3-5-1c3-2 9-2 10 2q1 4-4 3M478 581l-7-3 1-2 9 2 3 4zM668 560q7-5 13 2l-3 1-7-1z"/><path fill="#f8c03f" d="m669 521-3-4 1-3 3 1 2 2 1 3z"/><path fill="#f3b638" d="M734 546q4 5-3 8l-1-7q0-4 4-1"/><path fill="#f8c03f" d="m612 565-3-3h-3l-2-2 5-2q2 0 4 2z"/><path fill="#f1b639" d="M605 582v-2c6-2 6-2 10 4-4-3-7 3-10-2"/><path fill="#f8c03f" d="M512 542q-2-5-8-5c3-6 6-3 10 1zM410 524l-2-5 2-2 6 6z"/><path fill="#f4b738" d="m458 544-1 2-4-2-1-5q6 0 6 5"/><path fill="#f3b739" d="m665 603-1-10q9 1 1 10"/><path fill="#f4b93a" d="M588 532h4l-2 7-2-1c-1-2-5-3 0-6"/><path fill="#f8c03f" d="m571 512 3-3 1 4-2 4h-2zM408 547v-4l4 1 1 4zM493 559l-3-1-1-6v-3h3l2 4 1 3v1z"/><path fill="#f3b739" d="M393 568c-5 1-5 1-8-3q5-4 8 2z"/><path fill="#f1b639" d="m491 582-2 2q-7-7 2-8z"/><path fill="#f8c03f" d="M397 552v-3l4-3 2 2-4 4z"/><path fill="#f3b739" d="m639 559 2-8q6 4-2 8"/><path fill="#f4b93a" d="m421 551-6 2v-1l8-4 3 4z"/><path fill="#f8c03f" d="m439 529-6 2-1-6 6 2z"/><path fill="#f3b739" d="M397 552h2l1 7-4-2q-1-2 1-5"/><path fill="#f8c03f" d="M621 573zh-2l-2-2 2-4z"/><path fill="#f1b639" d="M393 568zl1-2 2 2-1 3zM744 565zl7 3q-5 4-7-2"/><path fill="#f3b739" d="m656 583-1-2 2-1 3 4zM605 595l-4 2 1-5h1z"/><path fill="#f1b639" d="m671 568-2-2v-1l3 1z"/><path fill="#f3b739" d="m366 550 2-2 4 4v1z"/><path fill="#f4b93a" d="M387 544v6c0-2-4-4 0-6"/><path fill="#f1b639" d="m512 542 2-4 2 2z"/><path fill="#f4b738" d="m454 570-2-4q6 2 2 4M512 553l1-2 3 2-1 1z"/><path fill="#f8c03f" d="m613 571-1-3h3z"/><path fill="#f3b739" d="M360 552h3v2z"/><path fill="#f4b738" d="m532 544-2-1 2-1z"/><path fill="#f3b739" d="m500 553-1 1v-1z"/><path fill="#f3b638" d="m668 576-1-1h1z"/><path fill="#f3b739" d="M360 549v2l-3-1zM494 553l-2-4z"/><path fill="#f7c13f" d="m587 494 1-2h1l-1 2z"/><path fill="#f3b638" d="M726 561h-1l1-1z"/><path fill="#f4b93a" d="M565 550h1v1z"/><path fill="#f3b739" d="m674 550 3 1-1 1z"/><path fill="#f1b639" d="M617 586v-1z"/><path fill="#f6bd3d" d="M424 537v3z"/><path fill="#f4b738" d="m450 560 1-3zM519 559zM514 561zh2z"/><path fill="#f8c03f" d="M567 512zv1z"/><path fill="#f1b639" d="M398 563v1z"/><path fill="#f7c13f" d="m534 513-1-1zM616 515"/><path fill="#f8c03f" d="m561 519 1 1z"/><path fill="#f7c13f" d="m598 499-1-2z"/><path fill="#f8c03f" d="M549 536"/><path fill="#f4b93a" d="M387 541"/><path fill="#f8c03f" d="M510 544"/><path fill="#f4b738" d="M516 546"/><path fill="#f3b739" d="M647 559"/><path fill="#f3b638" d="M719 569"/><path fill="#f1b639" d="M753 565"/><path fill="#f4b738" d="M306 566zv1z"/><path fill="#f7c13f" d="m731 530-1 1z"/><path fill="#f4b93a" d="m472 523-1 1z"/><path fill="#f3b638" d="m679 591-1 1z"/><path fill="#f4b738" d="M520 551z"/><path fill="#f3b739" d="M607 602zM652 580z"/><path fill="#f4b93a" d="M387 544z"/><path fill="#f3b739" d="M584 570"/><path fill="#f4b738" d="M418 561"/><path fill="#f3b638" d="M734 562"/><path fill="#f3b739" d="M450 564q-1-1 0 0"/><path fill="#f4b93a" d="M612 565z"/><path fill="#f3b739" d="M378 552q1 0 0 0"/><path fill="#f4b93a" d="M616 576q1 0 0 0"/><path fill="#f3b739" d="M661 555q-1 0 0 0"/><path fill="#f4b93a" d="M582 535q0-1 0 0"/><path fill="#f6bc3d" d="M582 548q-1-4 5-5l-2 7zM590 554q-1 0 0 0"/><path fill="#f8bb3b" d="M686 641h-2l2-2zM683 623l1-1z"/><path fill="#f7bc3e" d="m175 596-3-2 1-1z"/><path fill="#f6bc3d" d="M557 545v2l-3-2z"/><path fill="#efbe47" d="m1245 401-4-14 12 1 3 4 4 13v3l-2 1zM1328 368l-7 7q2-9-2-18l-4-10 2-1 2 1c4 6 10 11 8 19zM1320 376l-1 2z"/><path fill="#f7c13f" d="M1079 442h-6v-1l8-4zM1085 441l3-3 2 3v1zM1085 441v2h-1zM1076 452l-3-1 1-1zM1076 452l3-1v1zM835 497l-4-2 1 4-5-1 1-8 5 1 4 3 1 3zM873 513l5-4 2 9zM870 517h3q3 5-6 5z"/><path fill="#f4b93a" d="m823 524-3-4c3 1 9 0 9 6z"/><path fill="#f7c13f" d="M852 521h5v2l-4 1z"/><path fill="#f4b93a" d="m876 524-5 4v-2z"/><path fill="#f7c13f" d="m822 503-2 2v-3zM837 513h4v2zM871 526v2l-3-1zM848 507h-2l1-2z"/><path fill="#f5bc3c" d="m876 524 1-2 1 1z"/><path fill="#f7c13f" d="m819 498 2-1v2zM834 532h-1z"/><path fill="#f4b93a" d="m852 521 1 3h-1l-2-2z"/><path fill="#f7c13f" d="m815 503 1-1zM844 500l1-1zM844 500l-1 1zM825 500zM843 504q0 1 0 0"/><path fill="#f2bc3e" d="m910 507 2-1 3 6v4c-3 2-5 6-10 4v-3h6c-5-4-1-5 0-6z"/><path fill="#f7c13f" d="m899 494-4 3h-1q0-4 2-6h6l3 2z"/><path fill="#f5bc3c" d="m923 507-5 3q-5-7 6-7zM905 518v2l-4 3q-3-6 4-5M915 516v-4l3 2z"/><path fill="#f7c13f" d="m902 490 3-3zM956 490"/><path fill="#f5bc3c" d="M943 495v-2z"/><path fill="#f7c13f" d="M962 489"/><path fill="#f5bc3c" d="M923 492q0 1 0 0"/><path fill="#f8c03f" d="m910 507 1 4c-1 1-5 2 0 6h-6l2-8 1-7z"/><path fill="#f7c13f" d="m1009 501-2-1 1-1zM1005 492l3 1-1 1zM1003 508v1h-1z"/><path fill="#f5bc3c" d="m990 514 2-1z"/><path fill="#f7c13f" d="M1001 502q0-1 0 0"/><path fill="#f6bc3d" d="M594 501"/><path fill="#f5bc3c" d="M1069 539"/><path fill="#f8c03f" d="M565 480zl1 3z"/><path fill="#f7c13f" d="m334 524 2 2zM333 528"/><path fill="#f3b638" d="M775 581c-6-2 0-4 0-6l7 5zM797 594l-1 2-2-1zM776 605l-2-4zM782 590l1-1 1 1zM776 607v-2l2 1z"/><path fill="#f6bc3d" d="M787 555v2l-1-1zM779 570"/><path fill="#f3b638" d="M778 592"/><path fill="#f5bc3c" d="M797 532q6 7-3 7v-5z"/><path fill="#f6bc3d" d="m797 532-3 2 1-4z"/><path fill="#f4b93a" d="M803 544zl-4-2 1-2z"/><path fill="#f6bc3d" d="M787 543h-2z"/><path fill="#f4b93a" d="m856 549 1-1 1 1z"/><path fill="#f5bc3c" d="M981 506q0 1 0 0M978 521zh1z"/><path fill="#f3b638" d="m709 594-7 3-2-6h14v2zM772 605l-1-1zM727 625q0-1 0 0"/><path fill="#f6bc3d" d="M626 523v2l-2-1zM599 526q0 1 0 0"/><path fill="#f6bd3d" d="m428 538 7-4q0 7-5 7z"/><path fill="#f6bc3d" d="m498 563 3 1v2z"/><path fill="#f8c03f" d="M458 560"/><path fill="#f6bc3d" d="M654 552z"/></svg>