<?xml version="1.0" standalone="no"?> <!DOCTYPE svg PUBLIC "-//W3C//DTD SVG 20010904//EN" "http://www.w3.org/TR/2001/REC-SVG-20010904/DTD/svg10.dtd"> <svg version="1.0" xmlns="http://www.w3.org/2000/svg" width="866.000000pt" height="1154.000000pt" viewBox="200 50 466 900" preserveAspectRatio="xMidYMid meet"> <g transform="translate(0.000000,1154.000000) scale(0.100000,-0.100000)" fill="#D4AF37" stroke="none"> <path d="M2845 8793 c-33 -8 -67 -22 -76 -29 -8 -8 -21 -14 -27 -14 -28 0 -93 -53 -136 -109 -25 -34 -46 -65 -46 -70 0 -4 -10 -21 -22 -37 l-23 -29 0 -1215 0 -1215 24 -50 c34 -70 108 -162 158 -196 23 -16 45 -29 48 -29 4 0 18 -9 32 -20 25 -20 41 -20 1350 -20 1167 0 1324 2 1329 15 4 8 16 15 28 15 25 0 56 23 137 98 35 33 69 77 90 119 l34 67 3 1170 c2 855 0 1186 -8 1226 -11 51 -49 130 -74 156 -6 6 -27 31 -46 56 -19 25 -46 50 -60 56 -14 6 -43 18 -65 27 -109 46 -71 45 -1365 44 -1071 0 -1233 -2 -1285 -16z m2588 -115 c20 -6 37 -14 37 -18 0 -4 22 -21 49 -38 55 -36 82 -75 99 -144 9 -35 12 -347 12 -1205 0 -741 -4 -1171 -10 -1194 -6 -20 -33 -63 -62 -95 -37 -42 -67 -66 -107 -83 l-56 -24 -1265 0 c-1446 0 -1322 -8 -1418 90 -95 97 -87 -24 -90 1283 -3 1177 -2 1241 34 1270 7 7 14 19 14 26 0 22 86 95 150 127 33 16 115 17 1260 20 674 2 1245 1 1270 -1 25 -2 62 -8 83 -14z"/> <path d="M3112 8333 c-33 -6 -141 -117 -162 -167 -10 -23 -21 -82 -25 -133 l-7 -93 61 0 61 0 0 89 c0 117 14 151 77 182 l48 23 967 0 967 1 46 -25 c36 -20 48 -33 58 -65 9 -30 12 -250 12 -895 0 -740 -2 -859 -15 -885 -8 -16 -37 -43 -64 -60 l-49 -30 -939 -3 -938 -3 -64 31 c-54 25 -68 38 -87 74 -18 38 -21 56 -17 125 5 93 -2 106 -60 103 -57 -4 -65 -17 -60 -92 7 -98 32 -171 78 -220 22 -24 40 -48 40 -54 1 -6 24 -22 52 -36 l51 -25 981 0 c817 0 988 2 1021 14 45 16 152 120 161 157 4 13 10 27 15 30 5 3 9 381 9 883 0 756 -2 880 -15 897 -8 10 -15 25 -15 31 0 7 -27 40 -60 72 -39 38 -74 64 -98 71 -24 6 -371 9 -1022 9 -542 -1 -995 -4 -1008 -6z"/> <path d="M4055 7961 c-11 -5 -49 -12 -85 -16 -35 -4 -71 -11 -80 -15 -8 -4 -40 -18 -70 -31 -48 -21 -115 -64 -198 -127 -12 -9 -31 -34 -42 -54 -11 -20 -29 -43 -41 -52 -20 -14 -41 -43 -54 -76 -4 -8 -15 -33 -25 -55 -19 -44 -37 -109 -52 -195 -16 -91 3 -241 48 -385 9 -27 40 -81 68 -120 29 -38 55 -75 57 -81 2 -7 44 -44 93 -82 92 -73 152 -101 306 -143 62 -18 93 -20 179 -16 57 4 109 11 115 17 5 5 24 10 41 10 17 0 39 6 50 14 11 7 43 21 72 30 33 11 85 43 140 88 48 38 91 78 95 88 4 10 16 24 27 30 12 6 21 17 21 24 0 8 -16 23 -36 35 -23 14 -44 19 -60 15 -14 -4 -28 -12 -31 -19 -12 -32 -104 -116 -157 -144 -33 -17 -64 -35 -70 -39 -30 -22 -131 -45 -218 -50 -73 -3 -111 0 -155 13 -84 25 -116 37 -133 50 -8 6 -40 23 -70 37 -35 16 -70 43 -95 74 -22 26 -46 52 -53 58 -37 31 -51 51 -56 80 -3 17 -15 48 -26 68 -11 21 -24 56 -30 78 -5 22 -15 59 -21 83 -20 76 1 205 54 337 35 89 51 112 129 191 90 91 184 149 242 149 19 0 39 7 46 15 10 12 39 15 144 15 101 0 137 -3 152 -15 10 -8 31 -15 45 -15 38 0 149 -54 181 -87 16 -15 46 -47 68 -70 23 -24 43 -43 46 -43 3 0 18 10 34 22 44 32 39 60 -22 119 -28 27 -56 49 -63 49 -7 0 -19 8 -28 18 -31 34 -169 95 -246 109 -100 18 -211 25 -236 14z"/> <path d="M2985 7865 c-5 -2 -21 -6 -35 -9 l-25 -5 -3 -572 c-1 -413 1 -576 9 -585 12 -15 109 -20 109 -6 0 4 0 268 0 586 1 461 -2 581 -12 588 -13 8 -26 9 -43 3z"/> <path d="M4845 7590 c-3 -5 -17 -10 -31 -10 -23 0 -129 -66 -189 -119 -16 -15 -48 -41 -70 -58 l-41 -30 -187 5 c-185 5 -188 5 -194 -16 -4 -17 -12 -21 -39 -20 -19 1 -39 7 -45 14 -5 7 -28 15 -50 19 -21 4 -39 11 -39 16 0 15 -30 10 -37 -7 -4 -11 -13 -13 -34 -9 -22 5 -30 2 -39 -15 -8 -14 -17 -19 -30 -15 -24 8 -73 -27 -89 -62 -10 -21 -17 -24 -42 -21 -25 4 -34 0 -47 -21 -9 -14 -25 -33 -34 -41 -15 -13 -24 -72 -19 -117 1 -15 74 -63 95 -63 7 0 19 7 26 15 10 13 9 15 -9 15 -14 0 -23 8 -27 24 -7 31 1 46 27 46 14 0 25 -10 32 -29 7 -20 20 -31 39 -35 16 -3 36 -13 44 -21 21 -21 127 -21 144 0 11 13 2 15 -69 15 -64 0 -81 3 -81 14 0 16 13 21 73 32 43 7 107 -2 107 -17 0 -19 53 -59 79 -59 14 1 44 7 66 15 22 8 48 15 58 15 10 0 20 7 23 15 4 8 16 15 29 15 12 0 28 7 35 15 10 13 9 15 -9 15 -12 0 -21 6 -21 15 0 19 39 20 54 1 9 -12 21 -12 61 -4 28 5 74 12 103 15 36 3 56 11 66 24 7 11 20 17 28 14 14 -6 104 29 110 43 4 10 75 42 93 42 8 0 29 9 47 20 18 11 41 20 52 20 10 0 35 8 55 18 63 33 105 50 133 56 33 7 46 42 25 63 -14 14 -18 13 -43 -6 -14 -11 -31 -21 -37 -21 -6 0 -18 -7 -28 -16 -15 -14 -27 -15 -76 -6 -46 8 -62 7 -80 -4 -12 -8 -43 -14 -68 -14 -25 0 -45 -4 -45 -9 0 -5 -17 -26 -37 -47 -24 -23 -53 -41 -78 -46 -33 -8 -42 -6 -52 8 -7 10 -13 20 -13 23 0 6 52 40 80 52 8 4 33 23 55 43 36 34 42 36 86 30 39 -5 47 -3 53 12 4 11 -1 28 -14 46 -23 31 -22 32 43 43 24 4 43 15 53 30 9 13 13 29 9 35 -8 13 -32 13 -40 0z m-887 -253 c2 -9 -4 -20 -13 -23 -20 -8 -50 19 -40 36 10 17 49 8 53 -13z m48 -43 c-7 -18 21 -64 39 -64 17 0 27 -42 13 -51 -18 -11 -27 -2 -21 21 4 14 -1 21 -20 25 -30 8 -47 0 -47 -21 0 -11 6 -13 20 -9 16 5 20 2 20 -14 0 -25 -13 -27 -35 -5 -12 13 -19 14 -28 5 -16 -16 -37 -14 -37 4 0 8 7 15 15 15 12 0 12 3 -2 18 -20 21 -40 18 -22 -4 8 -9 8 -14 1 -14 -6 0 -23 -12 -36 -27 -19 -20 -29 -24 -37 -16 -8 8 -6 13 10 18 22 7 28 39 11 65 -7 12 -12 12 -22 2 -10 -10 -10 -15 2 -22 13 -9 11 -13 -10 -30 -14 -11 -28 -20 -32 -20 -11 0 -48 38 -48 50 0 6 11 10 24 10 14 0 31 6 38 13 20 20 41 25 61 15 9 -5 23 -6 29 -2 7 5 5 12 -8 21 -18 14 -18 14 5 11 15 -2 25 -11 27 -22 3 -20 21 -36 42 -36 20 0 13 17 -10 25 l-23 8 24 4 c13 3 26 13 28 24 3 10 12 19 20 19 10 0 13 -6 9 -16z m361 -4 c10 -11 25 -20 35 -20 25 0 23 -26 -2 -33 -12 -3 -18 -11 -15 -19 3 -7 -3 -18 -14 -25 -16 -10 -18 -9 -14 8 6 22 -7 25 -26 7 -11 -11 -13 -8 -9 13 4 25 2 27 -35 32 -22 3 -46 3 -55 0 -12 -5 -11 -8 7 -15 27 -10 19 -28 -9 -21 -14 4 -20 0 -20 -10 0 -8 6 -18 13 -20 6 -3 -4 -6 -23 -6 -33 0 -34 1 -16 14 19 14 18 15 -12 21 -18 4 -32 13 -32 21 0 10 7 13 23 9 12 -3 16 -3 10 0 -23 10 -14 22 22 28 19 4 35 12 35 18 0 7 15 9 40 5 22 -3 43 -1 46 4 9 15 33 10 51 -11z m-226 -12 c-10 -29 -31 -35 -31 -10 0 11 8 23 18 25 9 3 18 5 19 6 1 0 -1 -9 -6 -21z m-70 -14 c6 -8 17 -14 25 -14 7 0 18 -10 25 -21 8 -17 8 -23 -2 -30 -13 -8 -21 -1 -78 63 -22 26 -22 26 -2 21 11 -3 26 -11 32 -19z m224 -54 c3 -5 -1 -10 -9 -10 -9 0 -16 5 -16 10 0 6 4 10 9 10 6 0 13 -4 16 -10z m-535 -44 c0 -11 -19 -15 -25 -6 -3 5 1 10 9 10 9 0 16 -2 16 -4z m478 -50 c10 -11 -22 -36 -39 -31 -9 3 -34 -1 -54 -10 -21 -8 -47 -15 -59 -15 -11 1 -34 12 -51 25 -22 18 -25 25 -15 29 38 14 205 15 218 2z"/> <path d="M3786 7211 c-3 -5 1 -11 9 -15 9 -3 15 0 15 9 0 16 -16 20 -24 6z"/> <path d="M5256 6111 c-4 -5 -2 -12 3 -15 5 -4 12 -2 15 3 4 5 2 12 -3 15 -5 4 -12 2 -15 -3z"/> <path d="M5736 8785 c4 -8 10 -12 15 -9 11 6 2 24 -11 24 -5 0 -7 -7 -4 -15z"/> <path d="M3605 5543 c-38 -8 -77 -21 -85 -28 -8 -7 -27 -19 -42 -26 -32 -17 -69 -65 -104 -138 -20 -39 -27 -69 -27 -116 0 -34 5 -77 13 -96 7 -19 34 -62 59 -96 34 -46 59 -68 96 -85 43 -20 66 -23 166 -23 114 0 116 1 173 35 32 19 62 44 68 55 6 11 21 31 34 45 16 17 26 47 34 95 13 79 6 159 -17 207 -21 42 -73 108 -86 108 -6 0 -25 11 -43 25 -18 14 -42 25 -53 25 -11 0 -30 4 -43 9 -48 17 -75 18 -143 4z m116 -110 c65 -31 116 -72 127 -100 19 -52 22 -97 11 -153 -7 -30 -19 -63 -28 -74 -9 -10 -36 -28 -61 -39 -33 -16 -62 -21 -112 -21 -39 1 -73 7 -83 15 -43 35 -85 86 -85 102 0 10 -5 28 -11 39 -9 16 -8 34 1 74 10 40 23 63 59 98 39 39 98 71 137 75 6 0 26 -6 45 -16z"/> <path d="M5105 5542 c-33 -8 -61 -19 -63 -23 -2 -5 -24 -18 -48 -28 -34 -16 -48 -29 -60 -58 -9 -21 -22 -45 -29 -53 -7 -8 -23 -43 -34 -78 -19 -54 -20 -68 -10 -110 25 -99 86 -187 159 -227 52 -28 61 -30 165 -29 106 0 113 2 181 37 88 44 84 33 76 247 l-2 56 -127 -1 -128 0 -3 -52 -3 -52 66 6 c76 7 85 1 85 -60 0 -27 -5 -39 -17 -43 -10 -3 -30 -12 -45 -20 -19 -11 -50 -14 -98 -12 -69 4 -71 5 -115 51 -49 52 -60 87 -53 173 4 43 11 61 35 87 17 18 32 39 35 47 3 8 31 23 62 32 55 18 57 17 108 -6 29 -12 59 -30 67 -39 7 -10 18 -17 23 -17 11 0 87 81 88 93 0 4 -20 17 -45 28 -25 11 -45 24 -45 29 0 6 -11 10 -24 10 -13 0 -43 7 -66 15 -23 8 -50 15 -59 14 -9 -1 -43 -8 -76 -17z"/> <path d="M2844 5526 c-2 -6 -3 -139 -2 -296 l3 -285 215 0 215 0 0 55 0 55 -83 3 c-46 2 -108 -2 -139 -8 -31 -5 -59 -7 -62 -4 -3 3 -6 114 -6 247 l0 242 -68 2 c-44 1 -70 -3 -73 -11z"/> <path d="M4170 5538 c-1 -2 -2 -137 -3 -300 l-3 -298 65 0 66 0 -3 137 c-1 76 -7 156 -13 177 -8 31 -8 41 3 47 18 12 26 11 37 -3 54 -67 71 -91 105 -141 22 -32 49 -66 60 -75 12 -9 28 -32 36 -51 7 -19 26 -47 42 -63 24 -24 35 -28 85 -28 l58 0 0 298 0 297 -65 0 -65 0 1 -125 c0 -69 3 -148 6 -175 5 -46 3 -52 -18 -62 -20 -9 -24 -8 -29 11 -15 49 -39 90 -82 134 -25 26 -56 67 -70 92 -14 25 -44 62 -67 83 -34 33 -50 40 -93 44 -29 2 -53 3 -53 1z m450 -404 c0 -16 -16 -19 -25 -4 -8 13 4 32 16 25 5 -4 9 -13 9 -21z m-25 -44 c0 -7 -6 -15 -12 -17 -8 -3 -13 4 -13 17 0 13 5 20 13 18 6 -3 12 -11 12 -18z"/> <path d="M4476 4891 c-4 -5 -2 -12 3 -15 5 -4 12 -2 15 3 4 5 2 12 -3 15 -5 4 -12 2 -15 -3z"/> <path d="M2515 4793 c-8 -2 -10 -213 -5 -586 0 -4 27 -7 61 -5 l61 3 1 283 c0 164 -3 286 -9 291 -10 9 -92 20 -109 14z"/> <path d="M2946 4776 c-22 -7 -61 -33 -88 -60 -47 -46 -48 -48 -48 -106 0 -57 1 -61 48 -107 35 -35 62 -52 98 -61 119 -32 156 -45 161 -58 9 -23 -16 -70 -43 -83 -53 -24 -129 -7 -179 40 -17 16 -35 29 -40 29 -12 0 -75 -75 -75 -89 0 -12 64 -48 120 -68 61 -22 119 -26 181 -13 48 10 69 21 100 52 21 21 39 47 39 56 0 10 5 23 11 29 9 9 9 24 -1 59 -15 52 -49 98 -89 118 -14 8 -60 20 -101 27 -80 14 -120 39 -120 73 0 33 14 47 59 57 48 11 81 5 133 -25 l37 -21 30 30 c17 17 31 37 31 46 0 27 -36 50 -107 70 -78 21 -102 22 -157 5z"/> <path d="M3389 4773 c0 -5 0 -132 0 -283 1 -151 1 -278 1 -283 0 -4 91 -6 203 -5 l202 3 0 55 0 55 -140 0 -140 0 4 218 c2 162 0 221 -9 232 -8 10 -31 15 -66 15 -30 0 -54 -3 -55 -7z"/> <path d="M4131 4761 c-6 -11 -11 -31 -11 -44 0 -13 -8 -35 -18 -48 -22 -30 -95 -189 -117 -255 -19 -57 -42 -113 -56 -134 -23 -37 -31 -60 -25 -75 4 -12 13 -15 29 -11 12 3 39 6 60 6 32 0 39 4 48 28 6 15 17 42 25 60 l14 32 121 0 120 0 26 -60 c14 -32 33 -60 41 -62 8 -2 37 -1 63 0 43 4 49 7 49 27 0 12 -7 28 -14 35 -8 6 -24 32 -35 56 -51 109 -60 131 -67 159 -3 17 -29 75 -56 130 -27 54 -52 115 -56 135 l-8 35 -61 3 c-53 3 -63 0 -72 -17z m91 -184 c-1 -9 4 -27 13 -40 8 -13 21 -44 29 -70 16 -54 17 -53 -79 -53 l-60 1 2 38 c2 21 12 51 23 67 11 15 20 34 20 42 0 20 22 39 40 35 8 -1 14 -10 12 -20z"/> <path d="M4632 4493 l3 -288 54 -3 c30 -2 57 0 62 5 4 4 3 77 -2 162 -8 127 -7 157 4 168 21 21 43 6 58 -39 7 -24 34 -62 60 -88 26 -26 55 -62 64 -81 9 -19 28 -45 41 -59 12 -14 32 -35 44 -48 18 -19 29 -23 72 -20 l50 3 0 285 0 285 -64 0 -63 0 4 -135 c2 -74 8 -146 13 -159 6 -18 5 -28 -7 -40 -21 -21 -43 -6 -70 47 -12 23 -31 52 -43 65 -12 13 -22 28 -22 33 0 6 -19 28 -42 51 -24 22 -53 60 -66 85 -17 36 -29 47 -53 52 -17 3 -47 6 -65 6 l-34 0 2 -287z m83 158 c3 -5 1 -12 -5 -16 -5 -3 -10 1 -10 9 0 18 6 21 15 7z m51 -46 c-7 -18 -26 -20 -26 -2 0 18 24 41 28 27 2 -6 1 -17 -2 -25z m304 -205 c0 -5 -4 -10 -10 -10 -5 0 -10 5 -10 10 0 6 5 10 10 10 6 0 10 -4 10 -10z"/> <path d="M5318 4497 c2 -155 5 -288 8 -295 3 -10 13 -12 36 -7 18 4 57 7 88 6 89 -2 199 18 241 45 21 13 43 24 48 24 11 0 59 78 83 135 18 42 24 125 10 140 -5 6 -14 28 -20 51 -18 64 -98 138 -175 163 -20 7 -101 14 -179 16 l-143 5 3 -283z m297 153 c35 -16 48 -30 70 -75 24 -48 26 -62 20 -111 -5 -46 -13 -62 -43 -91 -20 -19 -45 -41 -56 -48 -21 -14 -151 -23 -162 -12 -5 4 -8 275 -4 350 0 4 29 7 66 7 44 0 79 -7 109 -20z"/> <path d="M3049 4010 c-14 -8 -17 -27 -15 -115 1 -81 5 -108 16 -115 19 -12 137 -13 144 -1 4 5 2 21 -4 35 -9 24 -14 26 -52 24 l-43 -3 -1 79 c-2 84 -15 113 -45 96z"/> <path d="M2545 3998 c-40 -22 -55 -51 -55 -111 0 -48 4 -62 24 -82 13 -13 40 -27 60 -30 67 -13 135 34 100 69 -19 19 -24 19 -48 1 -11 -8 -27 -15 -36 -15 -20 0 -60 41 -60 62 0 25 36 58 62 58 14 0 31 -7 38 -15 9 -11 17 -12 31 -4 26 13 24 44 -3 63 -26 18 -84 20 -113 4z"/> <path d="M2791 3996 c-24 -13 -61 -77 -61 -105 0 -31 45 -101 73 -112 63 -26 150 20 162 85 8 39 -16 98 -51 125 -31 24 -87 27 -123 7z m106 -65 c16 -21 16 -62 -1 -83 -16 -22 -48 -23 -86 -3 -20 10 -30 23 -30 38 0 61 81 94 117 48z"/> <path d="M3252 3893 l3 -118 80 0 c80 0 80 0 83 28 4 29 2 30 -63 31 l-40 1 -1 75 c-1 41 -2 81 -3 88 0 6 -14 12 -31 12 l-31 0 3 -117z"/> <path d="M3473 3998 c-5 -7 -9 -58 -8 -113 2 -55 3 -103 4 -107 0 -5 39 -8 86 -8 l85 0 0 30 0 30 -60 0 c-46 0 -60 3 -60 14 0 11 14 16 48 18 39 3 47 6 47 23 0 17 -7 20 -43 21 -49 1 -66 12 -52 34 6 10 26 15 62 15 50 0 53 1 53 25 0 24 -2 25 -76 28 -53 2 -79 -1 -86 -10z"/> <path d="M3761 3997 c-24 -8 -38 -20 -48 -46 -17 -41 -12 -100 11 -136 9 -13 34 -30 56 -36 33 -10 47 -9 85 5 24 10 48 22 51 28 4 5 -3 19 -14 30 -19 19 -22 20 -53 4 -27 -14 -37 -14 -61 -4 -33 15 -45 47 -29 76 16 29 48 36 93 21 34 -11 41 -11 49 2 16 26 9 40 -26 55 -39 16 -66 16 -114 1z"/> <path d="M3973 3994 c-9 -24 6 -44 32 -44 22 0 25 -4 25 -37 0 -21 -4 -54 -8 -73 -12 -53 -5 -70 28 -70 16 0 32 6 37 13 4 6 6 47 4 90 -3 72 -2 77 18 77 22 0 44 30 33 46 -4 6 -42 11 -85 11 -57 0 -80 -4 -84 -13z"/> <path d="M4226 3968 c-26 -30 -36 -51 -36 -76 0 -41 37 -95 81 -118 24 -12 37 -13 64 -4 38 13 82 59 91 96 3 13 -2 46 -12 74 -14 38 -24 52 -47 60 -17 5 -47 10 -68 10 -32 0 -43 -6 -73 -42z m131 -30 c19 -16 16 -78 -4 -94 -28 -21 -70 -17 -87 8 -22 31 -20 60 5 87 16 17 28 21 48 16 14 -4 32 -11 38 -17z"/> <path d="M4506 4001 c-2 -3 -5 -55 -7 -116 l-4 -110 25 0 c22 0 26 5 30 40 7 57 30 57 58 0 19 -40 26 -46 49 -43 15 2 28 8 30 14 2 6 -6 21 -17 34 -11 13 -20 25 -20 27 0 2 10 17 21 33 17 22 20 36 15 63 -4 19 -13 41 -21 47 -16 13 -152 23 -159 11z m118 -54 c13 -10 16 -20 12 -35 -6 -17 -15 -22 -40 -22 -30 0 -56 15 -56 31 0 14 31 39 49 39 9 0 25 -6 35 -13z"/> <path d="M4782 3990 c-45 -42 -18 -103 54 -121 33 -9 44 -16 42 -28 -4 -22 -42 -25 -72 -6 -19 13 -29 14 -45 5 -12 -6 -21 -15 -21 -20 0 -4 16 -18 36 -30 28 -18 45 -21 86 -18 59 6 80 27 76 73 -3 29 -12 36 -83 67 -37 16 -40 43 -5 42 14 0 37 -4 52 -8 21 -6 27 -4 33 14 10 31 -20 49 -81 50 -37 0 -56 -5 -72 -20z"/> <path d="M5185 3976 c-18 -19 -35 -47 -38 -63 -11 -59 50 -143 105 -143 16 0 44 7 63 14 38 16 46 44 20 66 -12 10 -20 9 -41 -5 -31 -20 -69 -13 -84 16 -8 14 -8 29 0 53 13 41 51 53 76 25 10 -11 20 -19 23 -19 15 1 30 17 36 41 6 23 2 27 -33 37 -66 20 -91 15 -127 -22z"/> <path d="M5463 3995 c-35 -15 -63 -60 -63 -100 0 -64 61 -125 126 -125 30 0 44 7 76 40 41 44 46 69 24 130 -8 23 -24 41 -47 52 -41 21 -73 22 -116 3z m104 -67 c13 -12 23 -27 23 -33 0 -7 -9 -24 -21 -39 -24 -30 -63 -34 -91 -9 -38 34 -11 103 40 103 14 0 36 -10 49 -22z"/> <path d="M5684 3835 c-15 -23 -15 -27 0 -49 31 -48 84 2 56 53 -14 28 -36 26 -56 -4z"/> </g> </svg>