<?xml version="1.0" standalone="no"?>
<!DOCTYPE svg PUBLIC "-//W3C//DTD SVG 20010904//EN"
 "http://www.w3.org/TR/2001/REC-SVG-20010904/DTD/svg10.dtd">
<svg version="1.0" xmlns="http://www.w3.org/2000/svg"
 width="433.000000pt" height="577.000000pt" viewBox="0 0 433.000000 577.000000"
 preserveAspectRatio="xMidYMid meet">
<g transform="translate(0.000000,577.000000) scale(0.100000,-0.100000)"
fill="#D4AF37" stroke="none">
<path d="M939 4391 c-128 -41 -236 -153 -274 -283 -14 -48 -15 -184 -13 -1234
l3 -1180 37 -75 c55 -111 134 -180 248 -219 61 -21 73 -21 1215 -21 635 0
1171 3 1192 7 117 21 239 119 294 237 l34 72 0 1200 0 1200 -31 66 c-53 112
-140 192 -251 230 -54 18 -93 19 -1227 18 -1097 0 -1175 -1 -1227 -18z m2434
-105 c80 -29 164 -120 189 -206 10 -36 13 -275 13 -1195 l-1 -1150 -28 -62
c-33 -72 -87 -127 -161 -163 l-50 -25 -1170 0 -1170 0 -50 25 c-61 30 -126 93
-156 152 -33 63 -36 202 -33 1378 3 1119 0 1059 67 1146 37 48 80 80 134 100
56 20 2360 20 2416 0z"/>
<path d="M1193 3964 c-57 -27 -102 -77 -133 -145 -15 -34 -20 -66 -20 -136 l0
-93 49 0 49 0 4 89 c3 76 8 95 31 130 55 82 -27 76 958 79 688 2 884 0 914
-10 22 -8 51 -29 69 -51 l31 -39 3 -851 c1 -469 0 -866 -3 -883 -3 -17 -21
-50 -41 -73 -70 -81 6 -75 -954 -76 l-855 0 -45 25 c-76 43 -110 113 -110 228
l0 62 -50 0 -50 0 0 -84 c0 -127 39 -213 124 -275 88 -63 75 -62 1012 -59
l849 3 50 23 c63 29 119 83 153 147 l27 50 3 867 c2 861 2 866 -19 923 -24 66
-70 115 -139 150 l-49 25 -903 0 -903 -1 -52 -25z"/>
<path d="M2002 3640 c-187 -49 -324 -155 -427 -331 -60 -104 -88 -214 -89
-354 0 -141 15 -209 77 -335 51 -104 160 -223 257 -280 89 -53 206 -89 310
-96 141 -10 304 43 428 139 60 46 142 135 142 154 0 7 -18 22 -39 33 l-40 20
-52 -56 c-65 -68 -166 -136 -239 -161 -41 -13 -85 -18 -175 -18 -142 0 -189
13 -297 84 -116 76 -184 161 -238 301 -31 80 -33 92 -33 210 0 135 7 168 66
290 43 88 168 213 257 258 156 78 328 78 487 1 55 -26 105 -61 149 -101 64
-60 67 -62 91 -48 57 33 54 45 -27 123 -167 160 -394 223 -608 167z"/>
<path d="M1042 2913 l3 -588 45 0 45 0 3 588 2 587 -50 0 -50 0 2 -587z"/>
<path d="M2810 3300 c-8 -5 -27 -11 -41 -14 -14 -3 -72 -43 -130 -88 l-104
-83 -135 1 c-74 0 -154 3 -177 7 -39 7 -43 5 -43 -13 0 -13 -9 -22 -25 -26
-23 -6 -36 -4 -102 13 -16 4 -23 1 -23 -9 0 -11 -7 -14 -25 -10 -15 2 -25 0
-25 -7 0 -22 -20 -11 -26 15 -9 36 -47 29 -54 -10 -4 -26 -6 -27 -19 -13 -25
31 -47 20 -42 -20 1 -7 -5 -13 -13 -13 -9 0 -12 -7 -9 -20 6 -21 -6 -27 -22
-11 -6 5 -21 7 -35 4 -41 -8 -100 -127 -85 -173 7 -21 48 -30 155 -35 68 -4
72 -3 45 9 l-30 12 35 8 c19 5 62 10 95 13 33 2 81 10 107 18 25 7 49 11 52 8
3 -3 13 -2 23 2 10 5 29 9 43 11 14 1 49 6 78 10 45 6 52 4 52 -10 0 -12 7
-16 23 -14 16 2 21 9 19 24 -2 18 4 22 44 28 31 4 50 2 55 -5 7 -12 132 18
125 30 -2 3 0 17 5 30 8 19 12 21 24 11 8 -7 12 -16 9 -21 -9 -14 12 -5 359
155 66 30 75 41 46 59 -10 6 -33 -4 -78 -34 -60 -40 -65 -41 -77 -24 -7 10
-15 23 -17 29 -3 8 -8 7 -19 -1 -10 -9 -18 -9 -25 -2 -7 7 -14 5 -23 -6 -17
-20 -37 -19 -49 3 -10 16 -10 16 -11 0 0 -10 -5 -18 -11 -18 -6 0 -35 -25 -64
-55 -52 -53 -73 -64 -89 -47 -4 4 -19 7 -33 7 -15 0 -28 6 -30 13 -3 6 2 12
11 12 8 0 31 14 49 30 19 17 42 30 50 30 9 0 18 9 22 19 3 10 16 21 28 25 17
4 19 8 10 17 -9 9 -1 22 33 55 26 26 50 41 59 38 7 -3 25 3 39 13 37 26 33 45
-4 23z m-235 -361 c-4 -5 -13 -9 -22 -9 -13 0 -13 3 -3 15 13 15 35 11 25 -6z
m-772 -93 c23 -18 22 -22 -13 -34 -25 -9 -30 -8 -35 9 -12 36 14 50 48 25z"/>
<path d="M2715 3204 c-20 -15 -20 -15 -1 -30 21 -15 66 -19 66 -6 0 11 -30 52
-38 52 -4 0 -16 -8 -27 -16z"/>
<path d="M2175 2814 l-40 -13 40 6 c40 6 52 10 44 17 -2 2 -22 -3 -44 -10z"/>
<path d="M2010 2809 c-30 -4 -66 -12 -80 -18 -21 -9 -18 -10 15 -4 22 4 67 7
101 7 44 0 61 3 61 13 0 14 -14 15 -97 2z"/>
</g>
</svg>
